<svg width="1363" height="163" viewBox="0 0 1363 163" fill="none" xmlns="http://www.w3.org/2000/svg">
<path d="M0 15C0 6.71573 6.71573 0 15 0H37V163H15C6.71573 163 0 156.284 0 148V15Z" fill="#003585"/>
<rect width="1097" height="163" transform="translate(37)" fill="#F0F0F0"/>
<path d="M101.906 53.9219L94.3945 51.2383V48.0859L104.602 52.375V54.6367L101.906 53.9219ZM94.3945 56.1719L101.918 53.4297L104.602 52.7852V55.0352L94.3945 59.3242V56.1719ZM126.785 43.9375V61H123.27L116.414 49.5625V61H112.898V43.9375H116.414L123.281 55.3867V43.9375H126.785ZM131.859 43.9375L135.422 51.7188L138.984 43.9375H142.816L137.203 54.7891V61H133.641V54.7891L128.016 43.9375H131.859ZM153.914 55.3398H157.418C157.348 56.4883 157.031 57.5078 156.469 58.3984C155.914 59.2891 155.137 59.9844 154.137 60.4844C153.145 60.9844 151.949 61.2344 150.551 61.2344C149.457 61.2344 148.477 61.0469 147.609 60.6719C146.742 60.2891 146 59.7422 145.383 59.0312C144.773 58.3203 144.309 57.4609 143.988 56.4531C143.668 55.4453 143.508 54.3164 143.508 53.0664V51.8828C143.508 50.6328 143.672 49.5039 144 48.4961C144.336 47.4805 144.812 46.6172 145.43 45.9062C146.055 45.1953 146.801 44.6484 147.668 44.2656C148.535 43.8828 149.504 43.6914 150.574 43.6914C151.996 43.6914 153.195 43.9492 154.172 44.4648C155.156 44.9805 155.918 45.6914 156.457 46.5977C157.004 47.5039 157.332 48.5352 157.441 49.6914H153.926C153.887 49.0039 153.75 48.4219 153.516 47.9453C153.281 47.4609 152.926 47.0977 152.449 46.8555C151.98 46.6055 151.355 46.4805 150.574 46.4805C149.988 46.4805 149.477 46.5898 149.039 46.8086C148.602 47.0273 148.234 47.3594 147.938 47.8047C147.641 48.25 147.418 48.8125 147.27 49.4922C147.129 50.1641 147.059 50.9531 147.059 51.8594V53.0664C147.059 53.9492 147.125 54.7266 147.258 55.3984C147.391 56.0625 147.594 56.625 147.867 57.0859C148.148 57.5391 148.508 57.8828 148.945 58.1172C149.391 58.3438 149.926 58.457 150.551 58.457C151.285 58.457 151.891 58.3398 152.367 58.1055C152.844 57.8711 153.207 57.5234 153.457 57.0625C153.715 56.6016 153.867 56.0273 153.914 55.3398ZM172.699 43.9375V61H169.195V43.9375H172.699ZM177.949 43.9375V46.6914H164.027V43.9375H177.949ZM182.297 51.0859V61H178.922V48.3203H182.098L182.297 51.0859ZM186.117 48.2383L186.059 51.3672C185.895 51.3438 185.695 51.3242 185.461 51.3086C185.234 51.2852 185.027 51.2734 184.84 51.2734C184.363 51.2734 183.949 51.3359 183.598 51.4609C183.254 51.5781 182.965 51.7539 182.73 51.9883C182.504 52.2227 182.332 52.5078 182.215 52.8438C182.105 53.1797 182.043 53.5625 182.027 53.9922L181.348 53.7812C181.348 52.9609 181.43 52.207 181.594 51.5195C181.758 50.8242 181.996 50.2188 182.309 49.7031C182.629 49.1875 183.02 48.7891 183.48 48.5078C183.941 48.2266 184.469 48.0859 185.062 48.0859C185.25 48.0859 185.441 48.1016 185.637 48.1328C185.832 48.1562 185.992 48.1914 186.117 48.2383ZM194.156 58.1406V52.4922C194.156 52.0859 194.09 51.7383 193.957 51.4492C193.824 51.1523 193.617 50.9219 193.336 50.7578C193.062 50.5938 192.707 50.5117 192.27 50.5117C191.895 50.5117 191.57 50.5781 191.297 50.7109C191.023 50.8359 190.812 51.0195 190.664 51.2617C190.516 51.4961 190.441 51.7734 190.441 52.0938H187.066C187.066 51.5547 187.191 51.043 187.441 50.5586C187.691 50.0742 188.055 49.6484 188.531 49.2812C189.008 48.9062 189.574 48.6133 190.23 48.4023C190.895 48.1914 191.637 48.0859 192.457 48.0859C193.441 48.0859 194.316 48.25 195.082 48.5781C195.848 48.9062 196.449 49.3984 196.887 50.0547C197.332 50.7109 197.555 51.5312 197.555 52.5156V57.9414C197.555 58.6367 197.598 59.207 197.684 59.6523C197.77 60.0898 197.895 60.4727 198.059 60.8008V61H194.648C194.484 60.6562 194.359 60.2266 194.273 59.7109C194.195 59.1875 194.156 58.6641 194.156 58.1406ZM194.602 53.2773L194.625 55.1875H192.738C192.293 55.1875 191.906 55.2383 191.578 55.3398C191.25 55.4414 190.98 55.5859 190.77 55.7734C190.559 55.9531 190.402 56.1641 190.301 56.4062C190.207 56.6484 190.16 56.9141 190.16 57.2031C190.16 57.4922 190.227 57.7539 190.359 57.9883C190.492 58.2148 190.684 58.3945 190.934 58.5273C191.184 58.6523 191.477 58.7148 191.812 58.7148C192.32 58.7148 192.762 58.6133 193.137 58.4102C193.512 58.207 193.801 57.957 194.004 57.6602C194.215 57.3633 194.324 57.082 194.332 56.8164L195.223 58.2461C195.098 58.5664 194.926 58.8984 194.707 59.2422C194.496 59.5859 194.227 59.9102 193.898 60.2148C193.57 60.5117 193.176 60.7578 192.715 60.9531C192.254 61.1406 191.707 61.2344 191.074 61.2344C190.27 61.2344 189.539 61.0742 188.883 60.7539C188.234 60.4258 187.719 59.9766 187.336 59.4062C186.961 58.8281 186.773 58.1719 186.773 57.4375C186.773 56.7734 186.898 56.1836 187.148 55.668C187.398 55.1523 187.766 54.7188 188.25 54.3672C188.742 54.0078 189.355 53.7383 190.09 53.5586C190.824 53.3711 191.676 53.2773 192.645 53.2773H194.602ZM204.457 61H201.059V47.1953C201.059 46.2344 201.246 45.4258 201.621 44.7695C202.004 44.1055 202.539 43.6055 203.227 43.2695C203.922 42.9258 204.746 42.7539 205.699 42.7539C206.012 42.7539 206.312 42.7773 206.602 42.8242C206.891 42.8633 207.172 42.9141 207.445 42.9766L207.41 45.5195C207.262 45.4805 207.105 45.4531 206.941 45.4375C206.777 45.4219 206.586 45.4141 206.367 45.4141C205.961 45.4141 205.613 45.4844 205.324 45.625C205.043 45.7578 204.828 45.957 204.68 46.2227C204.531 46.4883 204.457 46.8125 204.457 47.1953V61ZM207.023 48.3203V50.7109H199.172V48.3203H207.023ZM212.051 61H208.676V47.7461C208.676 46.668 208.895 45.7578 209.332 45.0156C209.77 44.2734 210.402 43.7109 211.23 43.3281C212.059 42.9453 213.055 42.7539 214.219 42.7539C214.883 42.7539 215.527 42.8203 216.152 42.9531C216.777 43.0781 217.422 43.2422 218.086 43.4453L217.605 46.1523C217.176 46.0195 216.711 45.8945 216.211 45.7773C215.719 45.6602 215.125 45.6016 214.43 45.6016C213.648 45.6016 213.055 45.7852 212.648 46.1523C212.25 46.5117 212.051 47.043 212.051 47.7461V61ZM214.57 48.3203V50.7109H206.777V48.3203H214.57ZM219.668 48.3203V61H216.27V48.3203H219.668ZM227.707 58.5977C228.121 58.5977 228.488 58.5195 228.809 58.3633C229.129 58.1992 229.379 57.9727 229.559 57.6836C229.746 57.3867 229.844 57.0391 229.852 56.6406H233.027C233.02 57.5312 232.781 58.3242 232.312 59.0195C231.844 59.707 231.215 60.25 230.426 60.6484C229.637 61.0391 228.754 61.2344 227.777 61.2344C226.793 61.2344 225.934 61.0703 225.199 60.7422C224.473 60.4141 223.867 59.9609 223.383 59.3828C222.898 58.7969 222.535 58.1172 222.293 57.3438C222.051 56.5625 221.93 55.7266 221.93 54.8359V54.4961C221.93 53.5977 222.051 52.7617 222.293 51.9883C222.535 51.207 222.898 50.5273 223.383 49.9492C223.867 49.3633 224.473 48.9062 225.199 48.5781C225.926 48.25 226.777 48.0859 227.754 48.0859C228.793 48.0859 229.703 48.2852 230.484 48.6836C231.273 49.082 231.891 49.6523 232.336 50.3945C232.789 51.1289 233.02 52 233.027 53.0078H229.852C229.844 52.5859 229.754 52.2031 229.582 51.8594C229.418 51.5156 229.176 51.2422 228.855 51.0391C228.543 50.8281 228.156 50.7227 227.695 50.7227C227.203 50.7227 226.801 50.8281 226.488 51.0391C226.176 51.2422 225.934 51.5234 225.762 51.8828C225.59 52.2344 225.469 52.6367 225.398 53.0898C225.336 53.5352 225.305 54.0039 225.305 54.4961V54.8359C225.305 55.3281 225.336 55.8008 225.398 56.2539C225.461 56.707 225.578 57.1094 225.75 57.4609C225.93 57.8125 226.176 58.0898 226.488 58.293C226.801 58.4961 227.207 58.5977 227.707 58.5977ZM248.109 46.8555L243.469 61H239.73L246.07 43.9375H248.449L248.109 46.8555ZM251.965 61L247.312 46.8555L246.938 43.9375H249.34L255.715 61H251.965ZM251.754 54.6484V57.4023H242.742V54.6484H251.754ZM262.324 58.5977C262.738 58.5977 263.105 58.5195 263.426 58.3633C263.746 58.1992 263.996 57.9727 264.176 57.6836C264.363 57.3867 264.461 57.0391 264.469 56.6406H267.645C267.637 57.5312 267.398 58.3242 266.93 59.0195C266.461 59.707 265.832 60.25 265.043 60.6484C264.254 61.0391 263.371 61.2344 262.395 61.2344C261.41 61.2344 260.551 61.0703 259.816 60.7422C259.09 60.4141 258.484 59.9609 258 59.3828C257.516 58.7969 257.152 58.1172 256.91 57.3438C256.668 56.5625 256.547 55.7266 256.547 54.8359V54.4961C256.547 53.5977 256.668 52.7617 256.91 51.9883C257.152 51.207 257.516 50.5273 258 49.9492C258.484 49.3633 259.09 48.9062 259.816 48.5781C260.543 48.25 261.395 48.0859 262.371 48.0859C263.41 48.0859 264.32 48.2852 265.102 48.6836C265.891 49.082 266.508 49.6523 266.953 50.3945C267.406 51.1289 267.637 52 267.645 53.0078H264.469C264.461 52.5859 264.371 52.2031 264.199 51.8594C264.035 51.5156 263.793 51.2422 263.473 51.0391C263.16 50.8281 262.773 50.7227 262.312 50.7227C261.82 50.7227 261.418 50.8281 261.105 51.0391C260.793 51.2422 260.551 51.5234 260.379 51.8828C260.207 52.2344 260.086 52.6367 260.016 53.0898C259.953 53.5352 259.922 54.0039 259.922 54.4961V54.8359C259.922 55.3281 259.953 55.8008 260.016 56.2539C260.078 56.707 260.195 57.1094 260.367 57.4609C260.547 57.8125 260.793 58.0898 261.105 58.293C261.418 58.4961 261.824 58.5977 262.324 58.5977ZM274.84 58.5977C275.254 58.5977 275.621 58.5195 275.941 58.3633C276.262 58.1992 276.512 57.9727 276.691 57.6836C276.879 57.3867 276.977 57.0391 276.984 56.6406H280.16C280.152 57.5312 279.914 58.3242 279.445 59.0195C278.977 59.707 278.348 60.25 277.559 60.6484C276.77 61.0391 275.887 61.2344 274.91 61.2344C273.926 61.2344 273.066 61.0703 272.332 60.7422C271.605 60.4141 271 59.9609 270.516 59.3828C270.031 58.7969 269.668 58.1172 269.426 57.3438C269.184 56.5625 269.062 55.7266 269.062 54.8359V54.4961C269.062 53.5977 269.184 52.7617 269.426 51.9883C269.668 51.207 270.031 50.5273 270.516 49.9492C271 49.3633 271.605 48.9062 272.332 48.5781C273.059 48.25 273.91 48.0859 274.887 48.0859C275.926 48.0859 276.836 48.2852 277.617 48.6836C278.406 49.082 279.023 49.6523 279.469 50.3945C279.922 51.1289 280.152 52 280.16 53.0078H276.984C276.977 52.5859 276.887 52.2031 276.715 51.8594C276.551 51.5156 276.309 51.2422 275.988 51.0391C275.676 50.8281 275.289 50.7227 274.828 50.7227C274.336 50.7227 273.934 50.8281 273.621 51.0391C273.309 51.2422 273.066 51.5234 272.895 51.8828C272.723 52.2344 272.602 52.6367 272.531 53.0898C272.469 53.5352 272.438 54.0039 272.438 54.4961V54.8359C272.438 55.3281 272.469 55.8008 272.531 56.2539C272.594 56.707 272.711 57.1094 272.883 57.4609C273.062 57.8125 273.309 58.0898 273.621 58.293C273.934 58.4961 274.34 58.5977 274.84 58.5977ZM285.68 48.3203V61H282.293V48.3203H285.68ZM282.082 45.0156C282.082 44.5234 282.254 44.1172 282.598 43.7969C282.941 43.4766 283.402 43.3164 283.98 43.3164C284.551 43.3164 285.008 43.4766 285.352 43.7969C285.703 44.1172 285.879 44.5234 285.879 45.0156C285.879 45.5078 285.703 45.9141 285.352 46.2344C285.008 46.5547 284.551 46.7148 283.98 46.7148C283.402 46.7148 282.941 46.5547 282.598 46.2344C282.254 45.9141 282.082 45.5078 282.082 45.0156ZM295.957 58.2344V43H299.355V61H296.297L295.957 58.2344ZM287.941 54.8125V54.5664C287.941 53.5977 288.051 52.7188 288.27 51.9297C288.488 51.1328 288.809 50.4492 289.23 49.8789C289.652 49.3086 290.172 48.8672 290.789 48.5547C291.406 48.2422 292.109 48.0859 292.898 48.0859C293.641 48.0859 294.289 48.2422 294.844 48.5547C295.406 48.8672 295.883 49.3125 296.273 49.8906C296.672 50.4609 296.992 51.1367 297.234 51.918C297.477 52.6914 297.652 53.5391 297.762 54.4609V55C297.652 55.8828 297.477 56.7031 297.234 57.4609C296.992 58.2188 296.672 58.8828 296.273 59.4531C295.883 60.0156 295.406 60.4531 294.844 60.7656C294.281 61.0781 293.625 61.2344 292.875 61.2344C292.086 61.2344 291.383 61.0742 290.766 60.7539C290.156 60.4336 289.641 59.9844 289.219 59.4062C288.805 58.8281 288.488 58.1484 288.27 57.3672C288.051 56.5859 287.941 55.7344 287.941 54.8125ZM291.316 54.5664V54.8125C291.316 55.3359 291.355 55.8242 291.434 56.2773C291.52 56.7305 291.656 57.1328 291.844 57.4844C292.039 57.8281 292.289 58.0977 292.594 58.293C292.906 58.4805 293.285 58.5742 293.73 58.5742C294.309 58.5742 294.785 58.4453 295.16 58.1875C295.535 57.9219 295.82 57.5586 296.016 57.0977C296.219 56.6367 296.336 56.1055 296.367 55.5039V53.9688C296.344 53.4766 296.273 53.0352 296.156 52.6445C296.047 52.2461 295.883 51.9062 295.664 51.625C295.453 51.3438 295.188 51.125 294.867 50.9688C294.555 50.8125 294.184 50.7344 293.754 50.7344C293.316 50.7344 292.941 50.8359 292.629 51.0391C292.316 51.2344 292.062 51.5039 291.867 51.8477C291.68 52.1914 291.539 52.5977 291.445 53.0664C291.359 53.5273 291.316 54.0273 291.316 54.5664ZM307.828 61.2344C306.844 61.2344 305.961 61.0781 305.18 60.7656C304.398 60.4453 303.734 60.0039 303.188 59.4414C302.648 58.8789 302.234 58.2266 301.945 57.4844C301.656 56.7344 301.512 55.9375 301.512 55.0938V54.625C301.512 53.6641 301.648 52.7852 301.922 51.9883C302.195 51.1914 302.586 50.5 303.094 49.9141C303.609 49.3281 304.234 48.8789 304.969 48.5664C305.703 48.2461 306.531 48.0859 307.453 48.0859C308.352 48.0859 309.148 48.2344 309.844 48.5312C310.539 48.8281 311.121 49.25 311.59 49.7969C312.066 50.3438 312.426 51 312.668 51.7656C312.91 52.5234 313.031 53.3672 313.031 54.2969V55.7031H302.953V53.4531H309.715V53.1953C309.715 52.7266 309.629 52.3086 309.457 51.9414C309.293 51.5664 309.043 51.2695 308.707 51.0508C308.371 50.832 307.941 50.7227 307.418 50.7227C306.973 50.7227 306.59 50.8203 306.27 51.0156C305.949 51.2109 305.688 51.4844 305.484 51.8359C305.289 52.1875 305.141 52.6016 305.039 53.0781C304.945 53.5469 304.898 54.0625 304.898 54.625V55.0938C304.898 55.6016 304.969 56.0703 305.109 56.5C305.258 56.9297 305.465 57.3008 305.73 57.6133C306.004 57.9258 306.332 58.168 306.715 58.3398C307.105 58.5117 307.547 58.5977 308.039 58.5977C308.648 58.5977 309.215 58.4805 309.738 58.2461C310.27 58.0039 310.727 57.6406 311.109 57.1562L312.75 58.9375C312.484 59.3203 312.121 59.6875 311.66 60.0391C311.207 60.3906 310.66 60.6797 310.02 60.9062C309.379 61.125 308.648 61.2344 307.828 61.2344ZM318.258 51.0273V61H314.883V48.3203H318.047L318.258 51.0273ZM317.766 54.2148H316.852C316.852 53.2773 316.973 52.4336 317.215 51.6836C317.457 50.9258 317.797 50.2812 318.234 49.75C318.672 49.2109 319.191 48.8008 319.793 48.5195C320.402 48.2305 321.082 48.0859 321.832 48.0859C322.426 48.0859 322.969 48.1719 323.461 48.3438C323.953 48.5156 324.375 48.7891 324.727 49.1641C325.086 49.5391 325.359 50.0352 325.547 50.6523C325.742 51.2695 325.84 52.0234 325.84 52.9141V61H322.441V52.9023C322.441 52.3398 322.363 51.9023 322.207 51.5898C322.051 51.2773 321.82 51.0586 321.516 50.9336C321.219 50.8008 320.852 50.7344 320.414 50.7344C319.961 50.7344 319.566 50.8242 319.23 51.0039C318.902 51.1836 318.629 51.4336 318.41 51.7539C318.199 52.0664 318.039 52.4336 317.93 52.8555C317.82 53.2773 317.766 53.7305 317.766 54.2148ZM334.617 48.3203V50.7109H327.234V48.3203H334.617ZM329.062 45.1914H332.438V57.1797C332.438 57.5469 332.484 57.8281 332.578 58.0234C332.68 58.2188 332.828 58.3555 333.023 58.4336C333.219 58.5039 333.465 58.5391 333.762 58.5391C333.973 58.5391 334.16 58.5312 334.324 58.5156C334.496 58.4922 334.641 58.4688 334.758 58.4453L334.77 60.9297C334.48 61.0234 334.168 61.0977 333.832 61.1523C333.496 61.207 333.125 61.2344 332.719 61.2344C331.977 61.2344 331.328 61.1133 330.773 60.8711C330.227 60.6211 329.805 60.2227 329.508 59.6758C329.211 59.1289 329.062 58.4102 329.062 57.5195V45.1914ZM343.395 57.4961C343.395 57.2539 343.324 57.0352 343.184 56.8398C343.043 56.6445 342.781 56.4648 342.398 56.3008C342.023 56.1289 341.48 55.9727 340.77 55.832C340.129 55.6914 339.531 55.5156 338.977 55.3047C338.43 55.0859 337.953 54.8242 337.547 54.5195C337.148 54.2148 336.836 53.8555 336.609 53.4414C336.383 53.0195 336.27 52.5391 336.27 52C336.27 51.4688 336.383 50.9688 336.609 50.5C336.844 50.0312 337.176 49.6172 337.605 49.2578C338.043 48.8906 338.574 48.6055 339.199 48.4023C339.832 48.1914 340.543 48.0859 341.332 48.0859C342.434 48.0859 343.379 48.2617 344.168 48.6133C344.965 48.9648 345.574 49.4492 345.996 50.0664C346.426 50.6758 346.641 51.3711 346.641 52.1523H343.266C343.266 51.8242 343.195 51.5312 343.055 51.2734C342.922 51.0078 342.711 50.8008 342.422 50.6523C342.141 50.4961 341.773 50.418 341.32 50.418C340.945 50.418 340.621 50.4844 340.348 50.6172C340.074 50.7422 339.863 50.9141 339.715 51.1328C339.574 51.3438 339.504 51.5781 339.504 51.8359C339.504 52.0312 339.543 52.207 339.621 52.3633C339.707 52.5117 339.844 52.6484 340.031 52.7734C340.219 52.8984 340.461 53.0156 340.758 53.125C341.062 53.2266 341.438 53.3203 341.883 53.4062C342.797 53.5938 343.613 53.8398 344.332 54.1445C345.051 54.4414 345.621 54.8477 346.043 55.3633C346.465 55.8711 346.676 56.5391 346.676 57.3672C346.676 57.9297 346.551 58.4453 346.301 58.9141C346.051 59.3828 345.691 59.793 345.223 60.1445C344.754 60.4883 344.191 60.7578 343.535 60.9531C342.887 61.1406 342.156 61.2344 341.344 61.2344C340.164 61.2344 339.164 61.0234 338.344 60.6016C337.531 60.1797 336.914 59.6445 336.492 58.9961C336.078 58.3398 335.871 57.668 335.871 56.9805H339.07C339.086 57.4414 339.203 57.8125 339.422 58.0938C339.648 58.375 339.934 58.5781 340.277 58.7031C340.629 58.8281 341.008 58.8906 341.414 58.8906C341.852 58.8906 342.215 58.832 342.504 58.7148C342.793 58.5898 343.012 58.4258 343.16 58.2227C343.316 58.0117 343.395 57.7695 343.395 57.4961ZM361.992 46.8555L357.352 61H353.613L359.953 43.9375H362.332L361.992 46.8555ZM365.848 61L361.195 46.8555L360.82 43.9375H363.223L369.598 61H365.848ZM365.637 54.6484V57.4023H356.625V54.6484H365.637ZM373.898 51.0273V61H370.523V48.3203H373.688L373.898 51.0273ZM373.406 54.2148H372.492C372.492 53.2773 372.613 52.4336 372.855 51.6836C373.098 50.9258 373.438 50.2812 373.875 49.75C374.312 49.2109 374.832 48.8008 375.434 48.5195C376.043 48.2305 376.723 48.0859 377.473 48.0859C378.066 48.0859 378.609 48.1719 379.102 48.3438C379.594 48.5156 380.016 48.7891 380.367 49.1641C380.727 49.5391 381 50.0352 381.188 50.6523C381.383 51.2695 381.48 52.0234 381.48 52.9141V61H378.082V52.9023C378.082 52.3398 378.004 51.9023 377.848 51.5898C377.691 51.2773 377.461 51.0586 377.156 50.9336C376.859 50.8008 376.492 50.7344 376.055 50.7344C375.602 50.7344 375.207 50.8242 374.871 51.0039C374.543 51.1836 374.27 51.4336 374.051 51.7539C373.84 52.0664 373.68 52.4336 373.57 52.8555C373.461 53.2773 373.406 53.7305 373.406 54.2148ZM390.891 58.1406V52.4922C390.891 52.0859 390.824 51.7383 390.691 51.4492C390.559 51.1523 390.352 50.9219 390.07 50.7578C389.797 50.5938 389.441 50.5117 389.004 50.5117C388.629 50.5117 388.305 50.5781 388.031 50.7109C387.758 50.8359 387.547 51.0195 387.398 51.2617C387.25 51.4961 387.176 51.7734 387.176 52.0938H383.801C383.801 51.5547 383.926 51.043 384.176 50.5586C384.426 50.0742 384.789 49.6484 385.266 49.2812C385.742 48.9062 386.309 48.6133 386.965 48.4023C387.629 48.1914 388.371 48.0859 389.191 48.0859C390.176 48.0859 391.051 48.25 391.816 48.5781C392.582 48.9062 393.184 49.3984 393.621 50.0547C394.066 50.7109 394.289 51.5312 394.289 52.5156V57.9414C394.289 58.6367 394.332 59.207 394.418 59.6523C394.504 60.0898 394.629 60.4727 394.793 60.8008V61H391.383C391.219 60.6562 391.094 60.2266 391.008 59.7109C390.93 59.1875 390.891 58.6641 390.891 58.1406ZM391.336 53.2773L391.359 55.1875H389.473C389.027 55.1875 388.641 55.2383 388.312 55.3398C387.984 55.4414 387.715 55.5859 387.504 55.7734C387.293 55.9531 387.137 56.1641 387.035 56.4062C386.941 56.6484 386.895 56.9141 386.895 57.2031C386.895 57.4922 386.961 57.7539 387.094 57.9883C387.227 58.2148 387.418 58.3945 387.668 58.5273C387.918 58.6523 388.211 58.7148 388.547 58.7148C389.055 58.7148 389.496 58.6133 389.871 58.4102C390.246 58.207 390.535 57.957 390.738 57.6602C390.949 57.3633 391.059 57.082 391.066 56.8164L391.957 58.2461C391.832 58.5664 391.66 58.8984 391.441 59.2422C391.23 59.5859 390.961 59.9102 390.633 60.2148C390.305 60.5117 389.91 60.7578 389.449 60.9531C388.988 61.1406 388.441 61.2344 387.809 61.2344C387.004 61.2344 386.273 61.0742 385.617 60.7539C384.969 60.4258 384.453 59.9766 384.07 59.4062C383.695 58.8281 383.508 58.1719 383.508 57.4375C383.508 56.7734 383.633 56.1836 383.883 55.668C384.133 55.1523 384.5 54.7188 384.984 54.3672C385.477 54.0078 386.09 53.7383 386.824 53.5586C387.559 53.3711 388.41 53.2773 389.379 53.2773H391.336ZM400.453 43V61H397.066V43H400.453ZM407.004 59.5703L410.367 48.3203H413.988L408.891 62.9102C408.781 63.2305 408.633 63.5742 408.445 63.9414C408.266 64.3086 408.02 64.6562 407.707 64.9844C407.402 65.3203 407.016 65.5938 406.547 65.8047C406.086 66.0156 405.52 66.1211 404.848 66.1211C404.527 66.1211 404.266 66.1016 404.062 66.0625C403.859 66.0234 403.617 65.9688 403.336 65.8984V63.4258C403.422 63.4258 403.512 63.4258 403.605 63.4258C403.699 63.4336 403.789 63.4375 403.875 63.4375C404.32 63.4375 404.684 63.3867 404.965 63.2852C405.246 63.1836 405.473 63.0273 405.645 62.8164C405.816 62.6133 405.953 62.3477 406.055 62.0195L407.004 59.5703ZM405.598 48.3203L408.352 57.5078L408.832 61.082L406.535 61.3281L401.977 48.3203H405.598ZM422.191 57.4961C422.191 57.2539 422.121 57.0352 421.98 56.8398C421.84 56.6445 421.578 56.4648 421.195 56.3008C420.82 56.1289 420.277 55.9727 419.566 55.832C418.926 55.6914 418.328 55.5156 417.773 55.3047C417.227 55.0859 416.75 54.8242 416.344 54.5195C415.945 54.2148 415.633 53.8555 415.406 53.4414C415.18 53.0195 415.066 52.5391 415.066 52C415.066 51.4688 415.18 50.9688 415.406 50.5C415.641 50.0312 415.973 49.6172 416.402 49.2578C416.84 48.8906 417.371 48.6055 417.996 48.4023C418.629 48.1914 419.34 48.0859 420.129 48.0859C421.23 48.0859 422.176 48.2617 422.965 48.6133C423.762 48.9648 424.371 49.4492 424.793 50.0664C425.223 50.6758 425.438 51.3711 425.438 52.1523H422.062C422.062 51.8242 421.992 51.5312 421.852 51.2734C421.719 51.0078 421.508 50.8008 421.219 50.6523C420.938 50.4961 420.57 50.418 420.117 50.418C419.742 50.418 419.418 50.4844 419.145 50.6172C418.871 50.7422 418.66 50.9141 418.512 51.1328C418.371 51.3438 418.301 51.5781 418.301 51.8359C418.301 52.0312 418.34 52.207 418.418 52.3633C418.504 52.5117 418.641 52.6484 418.828 52.7734C419.016 52.8984 419.258 53.0156 419.555 53.125C419.859 53.2266 420.234 53.3203 420.68 53.4062C421.594 53.5938 422.41 53.8398 423.129 54.1445C423.848 54.4414 424.418 54.8477 424.84 55.3633C425.262 55.8711 425.473 56.5391 425.473 57.3672C425.473 57.9297 425.348 58.4453 425.098 58.9141C424.848 59.3828 424.488 59.793 424.02 60.1445C423.551 60.4883 422.988 60.7578 422.332 60.9531C421.684 61.1406 420.953 61.2344 420.141 61.2344C418.961 61.2344 417.961 61.0234 417.141 60.6016C416.328 60.1797 415.711 59.6445 415.289 58.9961C414.875 58.3398 414.668 57.668 414.668 56.9805H417.867C417.883 57.4414 418 57.8125 418.219 58.0938C418.445 58.375 418.73 58.5781 419.074 58.7031C419.426 58.8281 419.805 58.8906 420.211 58.8906C420.648 58.8906 421.012 58.832 421.301 58.7148C421.59 58.5898 421.809 58.4258 421.957 58.2227C422.113 58.0117 422.191 57.7695 422.191 57.4961ZM431.227 48.3203V61H427.84V48.3203H431.227ZM427.629 45.0156C427.629 44.5234 427.801 44.1172 428.145 43.7969C428.488 43.4766 428.949 43.3164 429.527 43.3164C430.098 43.3164 430.555 43.4766 430.898 43.7969C431.25 44.1172 431.426 44.5234 431.426 45.0156C431.426 45.5078 431.25 45.9141 430.898 46.2344C430.555 46.5547 430.098 46.7148 429.527 46.7148C428.949 46.7148 428.488 46.5547 428.145 46.2344C427.801 45.9141 427.629 45.5078 427.629 45.0156ZM440.871 57.4961C440.871 57.2539 440.801 57.0352 440.66 56.8398C440.52 56.6445 440.258 56.4648 439.875 56.3008C439.5 56.1289 438.957 55.9727 438.246 55.832C437.605 55.6914 437.008 55.5156 436.453 55.3047C435.906 55.0859 435.43 54.8242 435.023 54.5195C434.625 54.2148 434.312 53.8555 434.086 53.4414C433.859 53.0195 433.746 52.5391 433.746 52C433.746 51.4688 433.859 50.9688 434.086 50.5C434.32 50.0312 434.652 49.6172 435.082 49.2578C435.52 48.8906 436.051 48.6055 436.676 48.4023C437.309 48.1914 438.02 48.0859 438.809 48.0859C439.91 48.0859 440.855 48.2617 441.645 48.6133C442.441 48.9648 443.051 49.4492 443.473 50.0664C443.902 50.6758 444.117 51.3711 444.117 52.1523H440.742C440.742 51.8242 440.672 51.5312 440.531 51.2734C440.398 51.0078 440.188 50.8008 439.898 50.6523C439.617 50.4961 439.25 50.418 438.797 50.418C438.422 50.418 438.098 50.4844 437.824 50.6172C437.551 50.7422 437.34 50.9141 437.191 51.1328C437.051 51.3438 436.98 51.5781 436.98 51.8359C436.98 52.0312 437.02 52.207 437.098 52.3633C437.184 52.5117 437.32 52.6484 437.508 52.7734C437.695 52.8984 437.938 53.0156 438.234 53.125C438.539 53.2266 438.914 53.3203 439.359 53.4062C440.273 53.5938 441.09 53.8398 441.809 54.1445C442.527 54.4414 443.098 54.8477 443.52 55.3633C443.941 55.8711 444.152 56.5391 444.152 57.3672C444.152 57.9297 444.027 58.4453 443.777 58.9141C443.527 59.3828 443.168 59.793 442.699 60.1445C442.23 60.4883 441.668 60.7578 441.012 60.9531C440.363 61.1406 439.633 61.2344 438.82 61.2344C437.641 61.2344 436.641 61.0234 435.82 60.6016C435.008 60.1797 434.391 59.6445 433.969 58.9961C433.555 58.3398 433.348 57.668 433.348 56.9805H436.547C436.562 57.4414 436.68 57.8125 436.898 58.0938C437.125 58.375 437.41 58.5781 437.754 58.7031C438.105 58.8281 438.484 58.8906 438.891 58.8906C439.328 58.8906 439.691 58.832 439.98 58.7148C440.27 58.5898 440.488 58.4258 440.637 58.2227C440.793 58.0117 440.871 57.7695 440.871 57.4961Z" fill="#888888"/>
<path d="M118.594 98.4219V104.75H101.086V98.4219H118.594ZM103.828 84.875V119H95.6016V84.875H103.828ZM124.125 84.875V119H115.922V84.875H124.125ZM127.992 106.578V106.086C127.992 104.227 128.258 102.516 128.789 100.953C129.32 99.375 130.102 98.0078 131.133 96.8516C132.164 95.6953 133.438 94.7969 134.953 94.1562C136.469 93.5 138.219 93.1719 140.203 93.1719C142.203 93.1719 143.961 93.5 145.477 94.1562C147.008 94.7969 148.289 95.6953 149.32 96.8516C150.352 98.0078 151.133 99.375 151.664 100.953C152.195 102.516 152.461 104.227 152.461 106.086V106.578C152.461 108.422 152.195 110.133 151.664 111.711C151.133 113.273 150.352 114.641 149.32 115.812C148.289 116.969 147.016 117.867 145.5 118.508C143.984 119.148 142.234 119.469 140.25 119.469C138.266 119.469 136.508 119.148 134.977 118.508C133.445 117.867 132.164 116.969 131.133 115.812C130.102 114.641 129.32 113.273 128.789 111.711C128.258 110.133 127.992 108.422 127.992 106.578ZM135.891 106.086V106.578C135.891 107.531 135.961 108.422 136.102 109.25C136.242 110.078 136.477 110.805 136.805 111.43C137.133 112.039 137.578 112.516 138.141 112.859C138.703 113.203 139.406 113.375 140.25 113.375C141.078 113.375 141.766 113.203 142.312 112.859C142.875 112.516 143.32 112.039 143.648 111.43C143.977 110.805 144.211 110.078 144.352 109.25C144.492 108.422 144.562 107.531 144.562 106.578V106.086C144.562 105.164 144.492 104.297 144.352 103.484C144.211 102.656 143.977 101.93 143.648 101.305C143.32 100.664 142.875 100.164 142.312 99.8047C141.75 99.4453 141.047 99.2656 140.203 99.2656C139.375 99.2656 138.68 99.4453 138.117 99.8047C137.57 100.164 137.133 100.664 136.805 101.305C136.477 101.93 136.242 102.656 136.102 103.484C135.961 104.297 135.891 105.164 135.891 106.086ZM163.688 111.453L168.375 93.6406H173.32L171.562 102.57L166.922 119H162.961L163.688 111.453ZM161.836 93.6406L164.742 111.312L165.07 119H160.266L154.266 93.6406H161.836ZM177.492 110.938L180.422 93.6406H187.992L182.039 119H177.234L177.492 110.938ZM173.883 93.6406L178.617 111.406L179.344 119H175.336L170.789 102.617L169.102 93.6406H173.883ZM218.297 84.875V119H210.07V84.875H218.297ZM228.562 84.875V91.2266H200.039V84.875H228.562ZM225.773 106.578V106.086C225.773 104.227 226.039 102.516 226.57 100.953C227.102 99.375 227.883 98.0078 228.914 96.8516C229.945 95.6953 231.219 94.7969 232.734 94.1562C234.25 93.5 236 93.1719 237.984 93.1719C239.984 93.1719 241.742 93.5 243.258 94.1562C244.789 94.7969 246.07 95.6953 247.102 96.8516C248.133 98.0078 248.914 99.375 249.445 100.953C249.977 102.516 250.242 104.227 250.242 106.086V106.578C250.242 108.422 249.977 110.133 249.445 111.711C248.914 113.273 248.133 114.641 247.102 115.812C246.07 116.969 244.797 117.867 243.281 118.508C241.766 119.148 240.016 119.469 238.031 119.469C236.047 119.469 234.289 119.148 232.758 118.508C231.227 117.867 229.945 116.969 228.914 115.812C227.883 114.641 227.102 113.273 226.57 111.711C226.039 110.133 225.773 108.422 225.773 106.578ZM233.672 106.086V106.578C233.672 107.531 233.742 108.422 233.883 109.25C234.023 110.078 234.258 110.805 234.586 111.43C234.914 112.039 235.359 112.516 235.922 112.859C236.484 113.203 237.188 113.375 238.031 113.375C238.859 113.375 239.547 113.203 240.094 112.859C240.656 112.516 241.102 112.039 241.43 111.43C241.758 110.805 241.992 110.078 242.133 109.25C242.273 108.422 242.344 107.531 242.344 106.578V106.086C242.344 105.164 242.273 104.297 242.133 103.484C241.992 102.656 241.758 101.93 241.43 101.305C241.102 100.664 240.656 100.164 240.094 99.8047C239.531 99.4453 238.828 99.2656 237.984 99.2656C237.156 99.2656 236.461 99.4453 235.898 99.8047C235.352 100.164 234.914 100.664 234.586 101.305C234.258 101.93 234.023 102.656 233.883 103.484C233.742 104.297 233.672 105.164 233.672 106.086ZM266.086 84.875H279.516C282.141 84.875 284.422 85.2656 286.359 86.0469C288.297 86.8281 289.789 87.9844 290.836 89.5156C291.898 91.0469 292.43 92.9375 292.43 95.1875C292.43 97.1406 292.125 98.7734 291.516 100.086C290.906 101.398 290.055 102.484 288.961 103.344C287.883 104.188 286.625 104.883 285.188 105.43L282.492 106.953H271.219L271.172 100.602H279.516C280.562 100.602 281.43 100.414 282.117 100.039C282.805 99.6641 283.32 99.1328 283.664 98.4453C284.023 97.7422 284.203 96.9062 284.203 95.9375C284.203 94.9531 284.023 94.1094 283.664 93.4062C283.305 92.7031 282.773 92.1641 282.07 91.7891C281.383 91.4141 280.531 91.2266 279.516 91.2266H274.312V119H266.086V84.875ZM284.766 119L277.219 103.906L285.938 103.859L293.578 118.648V119H284.766ZM311.836 112.836V93.6406H319.758V119H312.352L311.836 112.836ZM312.586 107.68L314.648 107.633C314.648 109.336 314.445 110.914 314.039 112.367C313.633 113.805 313.031 115.055 312.234 116.117C311.453 117.18 310.484 118.008 309.328 118.602C308.188 119.18 306.867 119.469 305.367 119.469C304.117 119.469 302.969 119.297 301.922 118.953C300.891 118.594 300 118.039 299.25 117.289C298.5 116.523 297.914 115.547 297.492 114.359C297.086 113.156 296.883 111.719 296.883 110.047V93.6406H304.781V110.094C304.781 110.656 304.852 111.141 304.992 111.547C305.133 111.953 305.336 112.297 305.602 112.578C305.867 112.844 306.195 113.047 306.586 113.188C306.992 113.312 307.453 113.375 307.969 113.375C309.156 113.375 310.086 113.125 310.758 112.625C311.43 112.125 311.898 111.445 312.164 110.586C312.445 109.727 312.586 108.758 312.586 107.68ZM331.875 99.0547V119H323.977V93.6406H331.383L331.875 99.0547ZM330.938 105.453L329.086 105.5C329.086 103.562 329.32 101.836 329.789 100.32C330.258 98.7891 330.922 97.4922 331.781 96.4297C332.641 95.3672 333.664 94.5625 334.852 94.0156C336.055 93.4531 337.391 93.1719 338.859 93.1719C340.031 93.1719 341.102 93.3438 342.07 93.6875C343.055 94.0312 343.898 94.5859 344.602 95.3516C345.32 96.1172 345.867 97.1328 346.242 98.3984C346.633 99.6484 346.828 101.195 346.828 103.039V119H338.883V103.016C338.883 102 338.742 101.227 338.461 100.695C338.18 100.148 337.773 99.7734 337.242 99.5703C336.711 99.3672 336.062 99.2656 335.297 99.2656C334.484 99.2656 333.797 99.4219 333.234 99.7344C332.672 100.047 332.219 100.484 331.875 101.047C331.547 101.594 331.305 102.242 331.148 102.992C331.008 103.742 330.938 104.562 330.938 105.453ZM363.773 108.195H357.047C357.047 106.82 357.141 105.609 357.328 104.562C357.531 103.5 357.875 102.547 358.359 101.703C358.844 100.859 359.5 100.078 360.328 99.3594C361.062 98.75 361.695 98.1641 362.227 97.6016C362.758 97.0391 363.164 96.4688 363.445 95.8906C363.727 95.3125 363.867 94.6953 363.867 94.0391C363.867 93.2266 363.75 92.5625 363.516 92.0469C363.297 91.5312 362.961 91.1484 362.508 90.8984C362.07 90.6328 361.516 90.5 360.844 90.5C360.297 90.5 359.781 90.6328 359.297 90.8984C358.828 91.1641 358.445 91.5781 358.148 92.1406C357.852 92.6875 357.688 93.4141 357.656 94.3203H349.711C349.758 91.9922 350.273 90.1016 351.258 88.6484C352.258 87.1797 353.586 86.1094 355.242 85.4375C356.914 84.75 358.781 84.4062 360.844 84.4062C363.125 84.4062 365.086 84.7578 366.727 85.4609C368.367 86.1641 369.625 87.2109 370.5 88.6016C371.375 89.9766 371.812 91.6719 371.812 93.6875C371.812 95.0312 371.555 96.2031 371.039 97.2031C370.539 98.1875 369.859 99.1094 369 99.9688C368.156 100.812 367.211 101.719 366.164 102.688C365.258 103.484 364.641 104.297 364.312 105.125C363.984 105.938 363.805 106.961 363.773 108.195ZM356.086 115.32C356.086 114.195 356.492 113.258 357.305 112.508C358.117 111.742 359.172 111.359 360.469 111.359C361.766 111.359 362.82 111.742 363.633 112.508C364.445 113.258 364.852 114.195 364.852 115.32C364.852 116.445 364.445 117.391 363.633 118.156C362.82 118.906 361.766 119.281 360.469 119.281C359.172 119.281 358.117 118.906 357.305 118.156C356.492 117.391 356.086 116.445 356.086 115.32Z" fill="black"/>
<path d="M1134 0H1348C1356.28 0 1363 6.71573 1363 15V148C1363 156.284 1356.28 163 1348 163H1134V0Z" fill="#003585"/>
<path d="M1260.62 78.8078C1263.81 78.8078 1266.93 79.7552 1269.59 81.5302C1272.25 83.3052 1274.32 85.8281 1275.54 88.7798C1276.76 91.7315 1277.08 94.9795 1276.46 98.1131C1275.84 101.247 1274.3 104.125 1272.04 106.384C1269.78 108.643 1266.9 110.182 1263.77 110.805C1260.63 111.428 1257.39 111.108 1254.43 109.886C1251.48 108.663 1248.96 106.593 1247.18 103.936C1245.41 101.28 1244.46 98.1565 1244.46 94.9616C1244.46 90.6774 1246.16 86.5686 1249.19 83.5392C1252.22 80.5097 1256.33 78.8078 1260.62 78.8078ZM1260.62 73.4232C1256.36 73.4232 1252.19 74.6864 1248.65 77.0531C1245.11 79.4198 1242.35 82.7836 1240.72 86.7192C1239.09 90.6549 1238.66 94.9855 1239.49 99.1636C1240.32 103.342 1242.37 107.179 1245.39 110.192C1248.4 113.204 1252.24 115.255 1256.41 116.086C1260.59 116.917 1264.92 116.491 1268.86 114.861C1272.79 113.23 1276.16 110.47 1278.52 106.928C1280.89 103.386 1282.15 99.2215 1282.15 94.9616C1282.15 89.2493 1279.88 83.7709 1275.85 79.7317C1271.81 75.6924 1266.33 73.4232 1260.62 73.4232Z" fill="white"/>
<path d="M1274.08 46.4999H1220.23C1218.8 46.4999 1217.43 47.0672 1216.42 48.0771C1215.41 49.0869 1214.85 50.4565 1214.85 51.8845V105.731C1214.85 107.159 1215.41 108.528 1216.42 109.538C1217.43 110.548 1218.8 111.115 1220.23 111.115H1231V105.731H1220.23V68.0383H1279.46V51.8845C1279.46 50.4565 1278.89 49.0869 1277.88 48.0771C1276.87 47.0672 1275.5 46.4999 1274.08 46.4999ZM1220.23 62.6537V51.8845H1274.08V62.6537H1220.23Z" fill="white"/>
<path d="M1255.23 86.8848V103.039L1268.69 94.9617L1255.23 86.8848Z" fill="white"/>
</svg>
