<svg width="1363" height="163" viewBox="0 0 1363 163" fill="none" xmlns="http://www.w3.org/2000/svg">
<path d="M0 15C0 6.71573 6.71573 0 15 0H37V163H15C6.71573 163 0 156.284 0 148V15Z" fill="#003585"/>
<rect width="1097" height="163" transform="translate(37)" fill="#F0F0F0"/>
<path d="M101.906 53.9219L94.3945 51.2383V48.0859L104.602 52.375V54.6367L101.906 53.9219ZM94.3945 56.1719L101.918 53.4297L104.602 52.7852V55.0352L94.3945 59.3242V56.1719ZM126.785 43.9375V61H123.27L116.414 49.5625V61H112.898V43.9375H116.414L123.281 55.3867V43.9375H126.785ZM131.859 43.9375L135.422 51.7188L138.984 43.9375H142.816L137.203 54.7891V61H133.641V54.7891L128.016 43.9375H131.859ZM153.914 55.3398H157.418C157.348 56.4883 157.031 57.5078 156.469 58.3984C155.914 59.2891 155.137 59.9844 154.137 60.4844C153.145 60.9844 151.949 61.2344 150.551 61.2344C149.457 61.2344 148.477 61.0469 147.609 60.6719C146.742 60.2891 146 59.7422 145.383 59.0312C144.773 58.3203 144.309 57.4609 143.988 56.4531C143.668 55.4453 143.508 54.3164 143.508 53.0664V51.8828C143.508 50.6328 143.672 49.5039 144 48.4961C144.336 47.4805 144.812 46.6172 145.43 45.9062C146.055 45.1953 146.801 44.6484 147.668 44.2656C148.535 43.8828 149.504 43.6914 150.574 43.6914C151.996 43.6914 153.195 43.9492 154.172 44.4648C155.156 44.9805 155.918 45.6914 156.457 46.5977C157.004 47.5039 157.332 48.5352 157.441 49.6914H153.926C153.887 49.0039 153.75 48.4219 153.516 47.9453C153.281 47.4609 152.926 47.0977 152.449 46.8555C151.98 46.6055 151.355 46.4805 150.574 46.4805C149.988 46.4805 149.477 46.5898 149.039 46.8086C148.602 47.0273 148.234 47.3594 147.938 47.8047C147.641 48.25 147.418 48.8125 147.27 49.4922C147.129 50.1641 147.059 50.9531 147.059 51.8594V53.0664C147.059 53.9492 147.125 54.7266 147.258 55.3984C147.391 56.0625 147.594 56.625 147.867 57.0859C148.148 57.5391 148.508 57.8828 148.945 58.1172C149.391 58.3438 149.926 58.457 150.551 58.457C151.285 58.457 151.891 58.3398 152.367 58.1055C152.844 57.8711 153.207 57.5234 153.457 57.0625C153.715 56.6016 153.867 56.0273 153.914 55.3398ZM172.699 43.9375V61H169.195V43.9375H172.699ZM177.949 43.9375V46.6914H164.027V43.9375H177.949ZM182.297 51.0859V61H178.922V48.3203H182.098L182.297 51.0859ZM186.117 48.2383L186.059 51.3672C185.895 51.3438 185.695 51.3242 185.461 51.3086C185.234 51.2852 185.027 51.2734 184.84 51.2734C184.363 51.2734 183.949 51.3359 183.598 51.4609C183.254 51.5781 182.965 51.7539 182.73 51.9883C182.504 52.2227 182.332 52.5078 182.215 52.8438C182.105 53.1797 182.043 53.5625 182.027 53.9922L181.348 53.7812C181.348 52.9609 181.43 52.207 181.594 51.5195C181.758 50.8242 181.996 50.2188 182.309 49.7031C182.629 49.1875 183.02 48.7891 183.48 48.5078C183.941 48.2266 184.469 48.0859 185.062 48.0859C185.25 48.0859 185.441 48.1016 185.637 48.1328C185.832 48.1562 185.992 48.1914 186.117 48.2383ZM194.156 58.1406V52.4922C194.156 52.0859 194.09 51.7383 193.957 51.4492C193.824 51.1523 193.617 50.9219 193.336 50.7578C193.062 50.5938 192.707 50.5117 192.27 50.5117C191.895 50.5117 191.57 50.5781 191.297 50.7109C191.023 50.8359 190.812 51.0195 190.664 51.2617C190.516 51.4961 190.441 51.7734 190.441 52.0938H187.066C187.066 51.5547 187.191 51.043 187.441 50.5586C187.691 50.0742 188.055 49.6484 188.531 49.2812C189.008 48.9062 189.574 48.6133 190.23 48.4023C190.895 48.1914 191.637 48.0859 192.457 48.0859C193.441 48.0859 194.316 48.25 195.082 48.5781C195.848 48.9062 196.449 49.3984 196.887 50.0547C197.332 50.7109 197.555 51.5312 197.555 52.5156V57.9414C197.555 58.6367 197.598 59.207 197.684 59.6523C197.77 60.0898 197.895 60.4727 198.059 60.8008V61H194.648C194.484 60.6562 194.359 60.2266 194.273 59.7109C194.195 59.1875 194.156 58.6641 194.156 58.1406ZM194.602 53.2773L194.625 55.1875H192.738C192.293 55.1875 191.906 55.2383 191.578 55.3398C191.25 55.4414 190.98 55.5859 190.77 55.7734C190.559 55.9531 190.402 56.1641 190.301 56.4062C190.207 56.6484 190.16 56.9141 190.16 57.2031C190.16 57.4922 190.227 57.7539 190.359 57.9883C190.492 58.2148 190.684 58.3945 190.934 58.5273C191.184 58.6523 191.477 58.7148 191.812 58.7148C192.32 58.7148 192.762 58.6133 193.137 58.4102C193.512 58.207 193.801 57.957 194.004 57.6602C194.215 57.3633 194.324 57.082 194.332 56.8164L195.223 58.2461C195.098 58.5664 194.926 58.8984 194.707 59.2422C194.496 59.5859 194.227 59.9102 193.898 60.2148C193.57 60.5117 193.176 60.7578 192.715 60.9531C192.254 61.1406 191.707 61.2344 191.074 61.2344C190.27 61.2344 189.539 61.0742 188.883 60.7539C188.234 60.4258 187.719 59.9766 187.336 59.4062C186.961 58.8281 186.773 58.1719 186.773 57.4375C186.773 56.7734 186.898 56.1836 187.148 55.668C187.398 55.1523 187.766 54.7188 188.25 54.3672C188.742 54.0078 189.355 53.7383 190.09 53.5586C190.824 53.3711 191.676 53.2773 192.645 53.2773H194.602ZM204.457 61H201.059V47.1953C201.059 46.2344 201.246 45.4258 201.621 44.7695C202.004 44.1055 202.539 43.6055 203.227 43.2695C203.922 42.9258 204.746 42.7539 205.699 42.7539C206.012 42.7539 206.312 42.7773 206.602 42.8242C206.891 42.8633 207.172 42.9141 207.445 42.9766L207.41 45.5195C207.262 45.4805 207.105 45.4531 206.941 45.4375C206.777 45.4219 206.586 45.4141 206.367 45.4141C205.961 45.4141 205.613 45.4844 205.324 45.625C205.043 45.7578 204.828 45.957 204.68 46.2227C204.531 46.4883 204.457 46.8125 204.457 47.1953V61ZM207.023 48.3203V50.7109H199.172V48.3203H207.023ZM212.051 61H208.676V47.7461C208.676 46.668 208.895 45.7578 209.332 45.0156C209.77 44.2734 210.402 43.7109 211.23 43.3281C212.059 42.9453 213.055 42.7539 214.219 42.7539C214.883 42.7539 215.527 42.8203 216.152 42.9531C216.777 43.0781 217.422 43.2422 218.086 43.4453L217.605 46.1523C217.176 46.0195 216.711 45.8945 216.211 45.7773C215.719 45.6602 215.125 45.6016 214.43 45.6016C213.648 45.6016 213.055 45.7852 212.648 46.1523C212.25 46.5117 212.051 47.043 212.051 47.7461V61ZM214.57 48.3203V50.7109H206.777V48.3203H214.57ZM219.668 48.3203V61H216.27V48.3203H219.668ZM227.707 58.5977C228.121 58.5977 228.488 58.5195 228.809 58.3633C229.129 58.1992 229.379 57.9727 229.559 57.6836C229.746 57.3867 229.844 57.0391 229.852 56.6406H233.027C233.02 57.5312 232.781 58.3242 232.312 59.0195C231.844 59.707 231.215 60.25 230.426 60.6484C229.637 61.0391 228.754 61.2344 227.777 61.2344C226.793 61.2344 225.934 61.0703 225.199 60.7422C224.473 60.4141 223.867 59.9609 223.383 59.3828C222.898 58.7969 222.535 58.1172 222.293 57.3438C222.051 56.5625 221.93 55.7266 221.93 54.8359V54.4961C221.93 53.5977 222.051 52.7617 222.293 51.9883C222.535 51.207 222.898 50.5273 223.383 49.9492C223.867 49.3633 224.473 48.9062 225.199 48.5781C225.926 48.25 226.777 48.0859 227.754 48.0859C228.793 48.0859 229.703 48.2852 230.484 48.6836C231.273 49.082 231.891 49.6523 232.336 50.3945C232.789 51.1289 233.02 52 233.027 53.0078H229.852C229.844 52.5859 229.754 52.2031 229.582 51.8594C229.418 51.5156 229.176 51.2422 228.855 51.0391C228.543 50.8281 228.156 50.7227 227.695 50.7227C227.203 50.7227 226.801 50.8281 226.488 51.0391C226.176 51.2422 225.934 51.5234 225.762 51.8828C225.59 52.2344 225.469 52.6367 225.398 53.0898C225.336 53.5352 225.305 54.0039 225.305 54.4961V54.8359C225.305 55.3281 225.336 55.8008 225.398 56.2539C225.461 56.707 225.578 57.1094 225.75 57.4609C225.93 57.8125 226.176 58.0898 226.488 58.293C226.801 58.4961 227.207 58.5977 227.707 58.5977ZM248.109 46.8555L243.469 61H239.73L246.07 43.9375H248.449L248.109 46.8555ZM251.965 61L247.312 46.8555L246.938 43.9375H249.34L255.715 61H251.965ZM251.754 54.6484V57.4023H242.742V54.6484H251.754ZM262.324 58.5977C262.738 58.5977 263.105 58.5195 263.426 58.3633C263.746 58.1992 263.996 57.9727 264.176 57.6836C264.363 57.3867 264.461 57.0391 264.469 56.6406H267.645C267.637 57.5312 267.398 58.3242 266.93 59.0195C266.461 59.707 265.832 60.25 265.043 60.6484C264.254 61.0391 263.371 61.2344 262.395 61.2344C261.41 61.2344 260.551 61.0703 259.816 60.7422C259.09 60.4141 258.484 59.9609 258 59.3828C257.516 58.7969 257.152 58.1172 256.91 57.3438C256.668 56.5625 256.547 55.7266 256.547 54.8359V54.4961C256.547 53.5977 256.668 52.7617 256.91 51.9883C257.152 51.207 257.516 50.5273 258 49.9492C258.484 49.3633 259.09 48.9062 259.816 48.5781C260.543 48.25 261.395 48.0859 262.371 48.0859C263.41 48.0859 264.32 48.2852 265.102 48.6836C265.891 49.082 266.508 49.6523 266.953 50.3945C267.406 51.1289 267.637 52 267.645 53.0078H264.469C264.461 52.5859 264.371 52.2031 264.199 51.8594C264.035 51.5156 263.793 51.2422 263.473 51.0391C263.16 50.8281 262.773 50.7227 262.312 50.7227C261.82 50.7227 261.418 50.8281 261.105 51.0391C260.793 51.2422 260.551 51.5234 260.379 51.8828C260.207 52.2344 260.086 52.6367 260.016 53.0898C259.953 53.5352 259.922 54.0039 259.922 54.4961V54.8359C259.922 55.3281 259.953 55.8008 260.016 56.2539C260.078 56.707 260.195 57.1094 260.367 57.4609C260.547 57.8125 260.793 58.0898 261.105 58.293C261.418 58.4961 261.824 58.5977 262.324 58.5977ZM274.84 58.5977C275.254 58.5977 275.621 58.5195 275.941 58.3633C276.262 58.1992 276.512 57.9727 276.691 57.6836C276.879 57.3867 276.977 57.0391 276.984 56.6406H280.16C280.152 57.5312 279.914 58.3242 279.445 59.0195C278.977 59.707 278.348 60.25 277.559 60.6484C276.77 61.0391 275.887 61.2344 274.91 61.2344C273.926 61.2344 273.066 61.0703 272.332 60.7422C271.605 60.4141 271 59.9609 270.516 59.3828C270.031 58.7969 269.668 58.1172 269.426 57.3438C269.184 56.5625 269.062 55.7266 269.062 54.8359V54.4961C269.062 53.5977 269.184 52.7617 269.426 51.9883C269.668 51.207 270.031 50.5273 270.516 49.9492C271 49.3633 271.605 48.9062 272.332 48.5781C273.059 48.25 273.91 48.0859 274.887 48.0859C275.926 48.0859 276.836 48.2852 277.617 48.6836C278.406 49.082 279.023 49.6523 279.469 50.3945C279.922 51.1289 280.152 52 280.16 53.0078H276.984C276.977 52.5859 276.887 52.2031 276.715 51.8594C276.551 51.5156 276.309 51.2422 275.988 51.0391C275.676 50.8281 275.289 50.7227 274.828 50.7227C274.336 50.7227 273.934 50.8281 273.621 51.0391C273.309 51.2422 273.066 51.5234 272.895 51.8828C272.723 52.2344 272.602 52.6367 272.531 53.0898C272.469 53.5352 272.438 54.0039 272.438 54.4961V54.8359C272.438 55.3281 272.469 55.8008 272.531 56.2539C272.594 56.707 272.711 57.1094 272.883 57.4609C273.062 57.8125 273.309 58.0898 273.621 58.293C273.934 58.4961 274.34 58.5977 274.84 58.5977ZM285.68 48.3203V61H282.293V48.3203H285.68ZM282.082 45.0156C282.082 44.5234 282.254 44.1172 282.598 43.7969C282.941 43.4766 283.402 43.3164 283.98 43.3164C284.551 43.3164 285.008 43.4766 285.352 43.7969C285.703 44.1172 285.879 44.5234 285.879 45.0156C285.879 45.5078 285.703 45.9141 285.352 46.2344C285.008 46.5547 284.551 46.7148 283.98 46.7148C283.402 46.7148 282.941 46.5547 282.598 46.2344C282.254 45.9141 282.082 45.5078 282.082 45.0156ZM295.957 58.2344V43H299.355V61H296.297L295.957 58.2344ZM287.941 54.8125V54.5664C287.941 53.5977 288.051 52.7188 288.27 51.9297C288.488 51.1328 288.809 50.4492 289.23 49.8789C289.652 49.3086 290.172 48.8672 290.789 48.5547C291.406 48.2422 292.109 48.0859 292.898 48.0859C293.641 48.0859 294.289 48.2422 294.844 48.5547C295.406 48.8672 295.883 49.3125 296.273 49.8906C296.672 50.4609 296.992 51.1367 297.234 51.918C297.477 52.6914 297.652 53.5391 297.762 54.4609V55C297.652 55.8828 297.477 56.7031 297.234 57.4609C296.992 58.2188 296.672 58.8828 296.273 59.4531C295.883 60.0156 295.406 60.4531 294.844 60.7656C294.281 61.0781 293.625 61.2344 292.875 61.2344C292.086 61.2344 291.383 61.0742 290.766 60.7539C290.156 60.4336 289.641 59.9844 289.219 59.4062C288.805 58.8281 288.488 58.1484 288.27 57.3672C288.051 56.5859 287.941 55.7344 287.941 54.8125ZM291.316 54.5664V54.8125C291.316 55.3359 291.355 55.8242 291.434 56.2773C291.52 56.7305 291.656 57.1328 291.844 57.4844C292.039 57.8281 292.289 58.0977 292.594 58.293C292.906 58.4805 293.285 58.5742 293.73 58.5742C294.309 58.5742 294.785 58.4453 295.16 58.1875C295.535 57.9219 295.82 57.5586 296.016 57.0977C296.219 56.6367 296.336 56.1055 296.367 55.5039V53.9688C296.344 53.4766 296.273 53.0352 296.156 52.6445C296.047 52.2461 295.883 51.9062 295.664 51.625C295.453 51.3438 295.188 51.125 294.867 50.9688C294.555 50.8125 294.184 50.7344 293.754 50.7344C293.316 50.7344 292.941 50.8359 292.629 51.0391C292.316 51.2344 292.062 51.5039 291.867 51.8477C291.68 52.1914 291.539 52.5977 291.445 53.0664C291.359 53.5273 291.316 54.0273 291.316 54.5664ZM307.828 61.2344C306.844 61.2344 305.961 61.0781 305.18 60.7656C304.398 60.4453 303.734 60.0039 303.188 59.4414C302.648 58.8789 302.234 58.2266 301.945 57.4844C301.656 56.7344 301.512 55.9375 301.512 55.0938V54.625C301.512 53.6641 301.648 52.7852 301.922 51.9883C302.195 51.1914 302.586 50.5 303.094 49.9141C303.609 49.3281 304.234 48.8789 304.969 48.5664C305.703 48.2461 306.531 48.0859 307.453 48.0859C308.352 48.0859 309.148 48.2344 309.844 48.5312C310.539 48.8281 311.121 49.25 311.59 49.7969C312.066 50.3438 312.426 51 312.668 51.7656C312.91 52.5234 313.031 53.3672 313.031 54.2969V55.7031H302.953V53.4531H309.715V53.1953C309.715 52.7266 309.629 52.3086 309.457 51.9414C309.293 51.5664 309.043 51.2695 308.707 51.0508C308.371 50.832 307.941 50.7227 307.418 50.7227C306.973 50.7227 306.59 50.8203 306.27 51.0156C305.949 51.2109 305.688 51.4844 305.484 51.8359C305.289 52.1875 305.141 52.6016 305.039 53.0781C304.945 53.5469 304.898 54.0625 304.898 54.625V55.0938C304.898 55.6016 304.969 56.0703 305.109 56.5C305.258 56.9297 305.465 57.3008 305.73 57.6133C306.004 57.9258 306.332 58.168 306.715 58.3398C307.105 58.5117 307.547 58.5977 308.039 58.5977C308.648 58.5977 309.215 58.4805 309.738 58.2461C310.27 58.0039 310.727 57.6406 311.109 57.1562L312.75 58.9375C312.484 59.3203 312.121 59.6875 311.66 60.0391C311.207 60.3906 310.66 60.6797 310.02 60.9062C309.379 61.125 308.648 61.2344 307.828 61.2344ZM318.258 51.0273V61H314.883V48.3203H318.047L318.258 51.0273ZM317.766 54.2148H316.852C316.852 53.2773 316.973 52.4336 317.215 51.6836C317.457 50.9258 317.797 50.2812 318.234 49.75C318.672 49.2109 319.191 48.8008 319.793 48.5195C320.402 48.2305 321.082 48.0859 321.832 48.0859C322.426 48.0859 322.969 48.1719 323.461 48.3438C323.953 48.5156 324.375 48.7891 324.727 49.1641C325.086 49.5391 325.359 50.0352 325.547 50.6523C325.742 51.2695 325.84 52.0234 325.84 52.9141V61H322.441V52.9023C322.441 52.3398 322.363 51.9023 322.207 51.5898C322.051 51.2773 321.82 51.0586 321.516 50.9336C321.219 50.8008 320.852 50.7344 320.414 50.7344C319.961 50.7344 319.566 50.8242 319.23 51.0039C318.902 51.1836 318.629 51.4336 318.41 51.7539C318.199 52.0664 318.039 52.4336 317.93 52.8555C317.82 53.2773 317.766 53.7305 317.766 54.2148ZM334.617 48.3203V50.7109H327.234V48.3203H334.617ZM329.062 45.1914H332.438V57.1797C332.438 57.5469 332.484 57.8281 332.578 58.0234C332.68 58.2188 332.828 58.3555 333.023 58.4336C333.219 58.5039 333.465 58.5391 333.762 58.5391C333.973 58.5391 334.16 58.5312 334.324 58.5156C334.496 58.4922 334.641 58.4688 334.758 58.4453L334.77 60.9297C334.48 61.0234 334.168 61.0977 333.832 61.1523C333.496 61.207 333.125 61.2344 332.719 61.2344C331.977 61.2344 331.328 61.1133 330.773 60.8711C330.227 60.6211 329.805 60.2227 329.508 59.6758C329.211 59.1289 329.062 58.4102 329.062 57.5195V45.1914ZM343.395 57.4961C343.395 57.2539 343.324 57.0352 343.184 56.8398C343.043 56.6445 342.781 56.4648 342.398 56.3008C342.023 56.1289 341.48 55.9727 340.77 55.832C340.129 55.6914 339.531 55.5156 338.977 55.3047C338.43 55.0859 337.953 54.8242 337.547 54.5195C337.148 54.2148 336.836 53.8555 336.609 53.4414C336.383 53.0195 336.27 52.5391 336.27 52C336.27 51.4688 336.383 50.9688 336.609 50.5C336.844 50.0312 337.176 49.6172 337.605 49.2578C338.043 48.8906 338.574 48.6055 339.199 48.4023C339.832 48.1914 340.543 48.0859 341.332 48.0859C342.434 48.0859 343.379 48.2617 344.168 48.6133C344.965 48.9648 345.574 49.4492 345.996 50.0664C346.426 50.6758 346.641 51.3711 346.641 52.1523H343.266C343.266 51.8242 343.195 51.5312 343.055 51.2734C342.922 51.0078 342.711 50.8008 342.422 50.6523C342.141 50.4961 341.773 50.418 341.32 50.418C340.945 50.418 340.621 50.4844 340.348 50.6172C340.074 50.7422 339.863 50.9141 339.715 51.1328C339.574 51.3438 339.504 51.5781 339.504 51.8359C339.504 52.0312 339.543 52.207 339.621 52.3633C339.707 52.5117 339.844 52.6484 340.031 52.7734C340.219 52.8984 340.461 53.0156 340.758 53.125C341.062 53.2266 341.438 53.3203 341.883 53.4062C342.797 53.5938 343.613 53.8398 344.332 54.1445C345.051 54.4414 345.621 54.8477 346.043 55.3633C346.465 55.8711 346.676 56.5391 346.676 57.3672C346.676 57.9297 346.551 58.4453 346.301 58.9141C346.051 59.3828 345.691 59.793 345.223 60.1445C344.754 60.4883 344.191 60.7578 343.535 60.9531C342.887 61.1406 342.156 61.2344 341.344 61.2344C340.164 61.2344 339.164 61.0234 338.344 60.6016C337.531 60.1797 336.914 59.6445 336.492 58.9961C336.078 58.3398 335.871 57.668 335.871 56.9805H339.07C339.086 57.4414 339.203 57.8125 339.422 58.0938C339.648 58.375 339.934 58.5781 340.277 58.7031C340.629 58.8281 341.008 58.8906 341.414 58.8906C341.852 58.8906 342.215 58.832 342.504 58.7148C342.793 58.5898 343.012 58.4258 343.16 58.2227C343.316 58.0117 343.395 57.7695 343.395 57.4961ZM361.992 46.8555L357.352 61H353.613L359.953 43.9375H362.332L361.992 46.8555ZM365.848 61L361.195 46.8555L360.82 43.9375H363.223L369.598 61H365.848ZM365.637 54.6484V57.4023H356.625V54.6484H365.637ZM373.898 51.0273V61H370.523V48.3203H373.688L373.898 51.0273ZM373.406 54.2148H372.492C372.492 53.2773 372.613 52.4336 372.855 51.6836C373.098 50.9258 373.438 50.2812 373.875 49.75C374.312 49.2109 374.832 48.8008 375.434 48.5195C376.043 48.2305 376.723 48.0859 377.473 48.0859C378.066 48.0859 378.609 48.1719 379.102 48.3438C379.594 48.5156 380.016 48.7891 380.367 49.1641C380.727 49.5391 381 50.0352 381.188 50.6523C381.383 51.2695 381.48 52.0234 381.48 52.9141V61H378.082V52.9023C378.082 52.3398 378.004 51.9023 377.848 51.5898C377.691 51.2773 377.461 51.0586 377.156 50.9336C376.859 50.8008 376.492 50.7344 376.055 50.7344C375.602 50.7344 375.207 50.8242 374.871 51.0039C374.543 51.1836 374.27 51.4336 374.051 51.7539C373.84 52.0664 373.68 52.4336 373.57 52.8555C373.461 53.2773 373.406 53.7305 373.406 54.2148ZM390.891 58.1406V52.4922C390.891 52.0859 390.824 51.7383 390.691 51.4492C390.559 51.1523 390.352 50.9219 390.07 50.7578C389.797 50.5938 389.441 50.5117 389.004 50.5117C388.629 50.5117 388.305 50.5781 388.031 50.7109C387.758 50.8359 387.547 51.0195 387.398 51.2617C387.25 51.4961 387.176 51.7734 387.176 52.0938H383.801C383.801 51.5547 383.926 51.043 384.176 50.5586C384.426 50.0742 384.789 49.6484 385.266 49.2812C385.742 48.9062 386.309 48.6133 386.965 48.4023C387.629 48.1914 388.371 48.0859 389.191 48.0859C390.176 48.0859 391.051 48.25 391.816 48.5781C392.582 48.9062 393.184 49.3984 393.621 50.0547C394.066 50.7109 394.289 51.5312 394.289 52.5156V57.9414C394.289 58.6367 394.332 59.207 394.418 59.6523C394.504 60.0898 394.629 60.4727 394.793 60.8008V61H391.383C391.219 60.6562 391.094 60.2266 391.008 59.7109C390.93 59.1875 390.891 58.6641 390.891 58.1406ZM391.336 53.2773L391.359 55.1875H389.473C389.027 55.1875 388.641 55.2383 388.312 55.3398C387.984 55.4414 387.715 55.5859 387.504 55.7734C387.293 55.9531 387.137 56.1641 387.035 56.4062C386.941 56.6484 386.895 56.9141 386.895 57.2031C386.895 57.4922 386.961 57.7539 387.094 57.9883C387.227 58.2148 387.418 58.3945 387.668 58.5273C387.918 58.6523 388.211 58.7148 388.547 58.7148C389.055 58.7148 389.496 58.6133 389.871 58.4102C390.246 58.207 390.535 57.957 390.738 57.6602C390.949 57.3633 391.059 57.082 391.066 56.8164L391.957 58.2461C391.832 58.5664 391.66 58.8984 391.441 59.2422C391.23 59.5859 390.961 59.9102 390.633 60.2148C390.305 60.5117 389.91 60.7578 389.449 60.9531C388.988 61.1406 388.441 61.2344 387.809 61.2344C387.004 61.2344 386.273 61.0742 385.617 60.7539C384.969 60.4258 384.453 59.9766 384.07 59.4062C383.695 58.8281 383.508 58.1719 383.508 57.4375C383.508 56.7734 383.633 56.1836 383.883 55.668C384.133 55.1523 384.5 54.7188 384.984 54.3672C385.477 54.0078 386.09 53.7383 386.824 53.5586C387.559 53.3711 388.41 53.2773 389.379 53.2773H391.336ZM400.453 43V61H397.066V43H400.453ZM407.004 59.5703L410.367 48.3203H413.988L408.891 62.9102C408.781 63.2305 408.633 63.5742 408.445 63.9414C408.266 64.3086 408.02 64.6562 407.707 64.9844C407.402 65.3203 407.016 65.5938 406.547 65.8047C406.086 66.0156 405.52 66.1211 404.848 66.1211C404.527 66.1211 404.266 66.1016 404.062 66.0625C403.859 66.0234 403.617 65.9688 403.336 65.8984V63.4258C403.422 63.4258 403.512 63.4258 403.605 63.4258C403.699 63.4336 403.789 63.4375 403.875 63.4375C404.32 63.4375 404.684 63.3867 404.965 63.2852C405.246 63.1836 405.473 63.0273 405.645 62.8164C405.816 62.6133 405.953 62.3477 406.055 62.0195L407.004 59.5703ZM405.598 48.3203L408.352 57.5078L408.832 61.082L406.535 61.3281L401.977 48.3203H405.598ZM422.191 57.4961C422.191 57.2539 422.121 57.0352 421.98 56.8398C421.84 56.6445 421.578 56.4648 421.195 56.3008C420.82 56.1289 420.277 55.9727 419.566 55.832C418.926 55.6914 418.328 55.5156 417.773 55.3047C417.227 55.0859 416.75 54.8242 416.344 54.5195C415.945 54.2148 415.633 53.8555 415.406 53.4414C415.18 53.0195 415.066 52.5391 415.066 52C415.066 51.4688 415.18 50.9688 415.406 50.5C415.641 50.0312 415.973 49.6172 416.402 49.2578C416.84 48.8906 417.371 48.6055 417.996 48.4023C418.629 48.1914 419.34 48.0859 420.129 48.0859C421.23 48.0859 422.176 48.2617 422.965 48.6133C423.762 48.9648 424.371 49.4492 424.793 50.0664C425.223 50.6758 425.438 51.3711 425.438 52.1523H422.062C422.062 51.8242 421.992 51.5312 421.852 51.2734C421.719 51.0078 421.508 50.8008 421.219 50.6523C420.938 50.4961 420.57 50.418 420.117 50.418C419.742 50.418 419.418 50.4844 419.145 50.6172C418.871 50.7422 418.66 50.9141 418.512 51.1328C418.371 51.3438 418.301 51.5781 418.301 51.8359C418.301 52.0312 418.34 52.207 418.418 52.3633C418.504 52.5117 418.641 52.6484 418.828 52.7734C419.016 52.8984 419.258 53.0156 419.555 53.125C419.859 53.2266 420.234 53.3203 420.68 53.4062C421.594 53.5938 422.41 53.8398 423.129 54.1445C423.848 54.4414 424.418 54.8477 424.84 55.3633C425.262 55.8711 425.473 56.5391 425.473 57.3672C425.473 57.9297 425.348 58.4453 425.098 58.9141C424.848 59.3828 424.488 59.793 424.02 60.1445C423.551 60.4883 422.988 60.7578 422.332 60.9531C421.684 61.1406 420.953 61.2344 420.141 61.2344C418.961 61.2344 417.961 61.0234 417.141 60.6016C416.328 60.1797 415.711 59.6445 415.289 58.9961C414.875 58.3398 414.668 57.668 414.668 56.9805H417.867C417.883 57.4414 418 57.8125 418.219 58.0938C418.445 58.375 418.73 58.5781 419.074 58.7031C419.426 58.8281 419.805 58.8906 420.211 58.8906C420.648 58.8906 421.012 58.832 421.301 58.7148C421.59 58.5898 421.809 58.4258 421.957 58.2227C422.113 58.0117 422.191 57.7695 422.191 57.4961ZM431.227 48.3203V61H427.84V48.3203H431.227ZM427.629 45.0156C427.629 44.5234 427.801 44.1172 428.145 43.7969C428.488 43.4766 428.949 43.3164 429.527 43.3164C430.098 43.3164 430.555 43.4766 430.898 43.7969C431.25 44.1172 431.426 44.5234 431.426 45.0156C431.426 45.5078 431.25 45.9141 430.898 46.2344C430.555 46.5547 430.098 46.7148 429.527 46.7148C428.949 46.7148 428.488 46.5547 428.145 46.2344C427.801 45.9141 427.629 45.5078 427.629 45.0156ZM440.871 57.4961C440.871 57.2539 440.801 57.0352 440.66 56.8398C440.52 56.6445 440.258 56.4648 439.875 56.3008C439.5 56.1289 438.957 55.9727 438.246 55.832C437.605 55.6914 437.008 55.5156 436.453 55.3047C435.906 55.0859 435.43 54.8242 435.023 54.5195C434.625 54.2148 434.312 53.8555 434.086 53.4414C433.859 53.0195 433.746 52.5391 433.746 52C433.746 51.4688 433.859 50.9688 434.086 50.5C434.32 50.0312 434.652 49.6172 435.082 49.2578C435.52 48.8906 436.051 48.6055 436.676 48.4023C437.309 48.1914 438.02 48.0859 438.809 48.0859C439.91 48.0859 440.855 48.2617 441.645 48.6133C442.441 48.9648 443.051 49.4492 443.473 50.0664C443.902 50.6758 444.117 51.3711 444.117 52.1523H440.742C440.742 51.8242 440.672 51.5312 440.531 51.2734C440.398 51.0078 440.188 50.8008 439.898 50.6523C439.617 50.4961 439.25 50.418 438.797 50.418C438.422 50.418 438.098 50.4844 437.824 50.6172C437.551 50.7422 437.34 50.9141 437.191 51.1328C437.051 51.3438 436.98 51.5781 436.98 51.8359C436.98 52.0312 437.02 52.207 437.098 52.3633C437.184 52.5117 437.32 52.6484 437.508 52.7734C437.695 52.8984 437.938 53.0156 438.234 53.125C438.539 53.2266 438.914 53.3203 439.359 53.4062C440.273 53.5938 441.09 53.8398 441.809 54.1445C442.527 54.4414 443.098 54.8477 443.52 55.3633C443.941 55.8711 444.152 56.5391 444.152 57.3672C444.152 57.9297 444.027 58.4453 443.777 58.9141C443.527 59.3828 443.168 59.793 442.699 60.1445C442.23 60.4883 441.668 60.7578 441.012 60.9531C440.363 61.1406 439.633 61.2344 438.82 61.2344C437.641 61.2344 436.641 61.0234 435.82 60.6016C435.008 60.1797 434.391 59.6445 433.969 58.9961C433.555 58.3398 433.348 57.668 433.348 56.9805H436.547C436.562 57.4414 436.68 57.8125 436.898 58.0938C437.125 58.375 437.41 58.5781 437.754 58.7031C438.105 58.8281 438.484 58.8906 438.891 58.8906C439.328 58.8906 439.691 58.832 439.98 58.7148C440.27 58.5898 440.488 58.4258 440.637 58.2227C440.793 58.0117 440.871 57.7695 440.871 57.4961Z" fill="#888888"/>
<path d="M104.344 84.875V119H96.1406V84.875H104.344ZM117.727 99.0078V119H109.828V93.6406H117.234L117.727 99.0078ZM116.766 105.453L114.961 105.5C114.961 103.719 115.172 102.078 115.594 100.578C116.016 99.0781 116.641 97.7734 117.469 96.6641C118.297 95.5547 119.312 94.6953 120.516 94.0859C121.734 93.4766 123.141 93.1719 124.734 93.1719C125.844 93.1719 126.852 93.3438 127.758 93.6875C128.664 94.0156 129.445 94.5391 130.102 95.2578C130.758 95.9609 131.258 96.8828 131.602 98.0234C131.961 99.1484 132.141 100.5 132.141 102.078V119H124.242V103.086C124.242 102.008 124.117 101.195 123.867 100.648C123.633 100.102 123.289 99.7344 122.836 99.5469C122.383 99.3594 121.828 99.2656 121.172 99.2656C120.484 99.2656 119.867 99.4219 119.32 99.7344C118.773 100.047 118.305 100.484 117.914 101.047C117.539 101.594 117.25 102.242 117.047 102.992C116.859 103.742 116.766 104.562 116.766 105.453ZM131.25 105.453L129.047 105.5C129.047 103.719 129.242 102.078 129.633 100.578C130.039 99.0781 130.641 97.7734 131.438 96.6641C132.25 95.5547 133.258 94.6953 134.461 94.0859C135.664 93.4766 137.062 93.1719 138.656 93.1719C139.812 93.1719 140.875 93.3438 141.844 93.6875C142.812 94.0312 143.648 94.5859 144.352 95.3516C145.055 96.1172 145.602 97.1328 145.992 98.3984C146.383 99.6484 146.578 101.195 146.578 103.039V119H138.656V103.039C138.656 101.992 138.531 101.203 138.281 100.672C138.047 100.125 137.703 99.7578 137.25 99.5703C136.797 99.3672 136.258 99.2656 135.633 99.2656C134.883 99.2656 134.234 99.4219 133.688 99.7344C133.141 100.047 132.68 100.484 132.305 101.047C131.945 101.594 131.68 102.242 131.508 102.992C131.336 103.742 131.25 104.562 131.25 105.453ZM159.07 98.5156V128.75H151.172V93.6406H158.531L159.07 98.5156ZM174.633 106.016V106.508C174.633 108.352 174.422 110.062 174 111.641C173.578 113.219 172.953 114.594 172.125 115.766C171.297 116.938 170.266 117.852 169.031 118.508C167.812 119.148 166.398 119.469 164.789 119.469C163.273 119.469 161.969 119.133 160.875 118.461C159.781 117.789 158.867 116.859 158.133 115.672C157.398 114.484 156.805 113.125 156.352 111.594C155.898 110.062 155.539 108.445 155.273 106.742V106.109C155.539 104.281 155.898 102.586 156.352 101.023C156.805 99.4453 157.398 98.0703 158.133 96.8984C158.867 95.7266 159.773 94.8125 160.852 94.1562C161.945 93.5 163.25 93.1719 164.766 93.1719C166.375 93.1719 167.789 93.4766 169.008 94.0859C170.242 94.6953 171.273 95.5703 172.102 96.7109C172.945 97.8359 173.578 99.1875 174 100.766C174.422 102.344 174.633 104.094 174.633 106.016ZM166.734 106.508V106.016C166.734 105.031 166.664 104.133 166.523 103.32C166.383 102.492 166.156 101.773 165.844 101.164C165.547 100.555 165.148 100.086 164.648 99.7578C164.148 99.4297 163.531 99.2656 162.797 99.2656C161.953 99.2656 161.242 99.3984 160.664 99.6641C160.102 99.9141 159.648 100.305 159.305 100.836C158.977 101.352 158.742 102 158.602 102.781C158.477 103.547 158.422 104.445 158.438 105.477V107.398C158.406 108.586 158.523 109.633 158.789 110.539C159.055 111.43 159.516 112.125 160.172 112.625C160.828 113.125 161.719 113.375 162.844 113.375C163.594 113.375 164.219 113.203 164.719 112.859C165.219 112.5 165.617 112.008 165.914 111.383C166.211 110.742 166.422 110.008 166.547 109.18C166.672 108.352 166.734 107.461 166.734 106.508ZM186.492 83V119H178.57V83H186.492ZM203.648 119.469C201.586 119.469 199.742 119.148 198.117 118.508C196.492 117.852 195.117 116.953 193.992 115.812C192.883 114.672 192.031 113.359 191.438 111.875C190.859 110.391 190.57 108.82 190.57 107.164V106.273C190.57 104.414 190.828 102.695 191.344 101.117C191.859 99.5234 192.625 98.1328 193.641 96.9453C194.656 95.7578 195.93 94.8359 197.461 94.1797C198.992 93.5078 200.773 93.1719 202.805 93.1719C204.602 93.1719 206.211 93.4609 207.633 94.0391C209.055 94.6172 210.258 95.4453 211.242 96.5234C212.242 97.6016 213 98.9062 213.516 100.438C214.047 101.969 214.312 103.688 214.312 105.594V108.805H193.594V103.859H206.602V103.25C206.617 102.406 206.469 101.688 206.156 101.094C205.859 100.5 205.422 100.047 204.844 99.7344C204.266 99.4219 203.562 99.2656 202.734 99.2656C201.875 99.2656 201.164 99.4531 200.602 99.8281C200.055 100.203 199.625 100.719 199.312 101.375C199.016 102.016 198.805 102.758 198.68 103.602C198.555 104.445 198.492 105.336 198.492 106.273V107.164C198.492 108.102 198.617 108.953 198.867 109.719C199.133 110.484 199.508 111.141 199.992 111.688C200.492 112.219 201.086 112.633 201.773 112.93C202.477 113.227 203.273 113.375 204.164 113.375C205.242 113.375 206.305 113.172 207.352 112.766C208.398 112.359 209.297 111.688 210.047 110.75L213.633 115.016C213.117 115.75 212.383 116.461 211.43 117.148C210.492 117.836 209.367 118.398 208.055 118.836C206.742 119.258 205.273 119.469 203.648 119.469ZM225.492 99.0078V119H217.594V93.6406H225L225.492 99.0078ZM224.531 105.453L222.727 105.5C222.727 103.719 222.938 102.078 223.359 100.578C223.781 99.0781 224.406 97.7734 225.234 96.6641C226.062 95.5547 227.078 94.6953 228.281 94.0859C229.5 93.4766 230.906 93.1719 232.5 93.1719C233.609 93.1719 234.617 93.3438 235.523 93.6875C236.43 94.0156 237.211 94.5391 237.867 95.2578C238.523 95.9609 239.023 96.8828 239.367 98.0234C239.727 99.1484 239.906 100.5 239.906 102.078V119H232.008V103.086C232.008 102.008 231.883 101.195 231.633 100.648C231.398 100.102 231.055 99.7344 230.602 99.5469C230.148 99.3594 229.594 99.2656 228.938 99.2656C228.25 99.2656 227.633 99.4219 227.086 99.7344C226.539 100.047 226.07 100.484 225.68 101.047C225.305 101.594 225.016 102.242 224.812 102.992C224.625 103.742 224.531 104.562 224.531 105.453ZM239.016 105.453L236.812 105.5C236.812 103.719 237.008 102.078 237.398 100.578C237.805 99.0781 238.406 97.7734 239.203 96.6641C240.016 95.5547 241.023 94.6953 242.227 94.0859C243.43 93.4766 244.828 93.1719 246.422 93.1719C247.578 93.1719 248.641 93.3438 249.609 93.6875C250.578 94.0312 251.414 94.5859 252.117 95.3516C252.82 96.1172 253.367 97.1328 253.758 98.3984C254.148 99.6484 254.344 101.195 254.344 103.039V119H246.422V103.039C246.422 101.992 246.297 101.203 246.047 100.672C245.812 100.125 245.469 99.7578 245.016 99.5703C244.562 99.3672 244.023 99.2656 243.398 99.2656C242.648 99.2656 242 99.4219 241.453 99.7344C240.906 100.047 240.445 100.484 240.07 101.047C239.711 101.594 239.445 102.242 239.273 102.992C239.102 103.742 239.016 104.562 239.016 105.453ZM271.148 119.469C269.086 119.469 267.242 119.148 265.617 118.508C263.992 117.852 262.617 116.953 261.492 115.812C260.383 114.672 259.531 113.359 258.938 111.875C258.359 110.391 258.07 108.82 258.07 107.164V106.273C258.07 104.414 258.328 102.695 258.844 101.117C259.359 99.5234 260.125 98.1328 261.141 96.9453C262.156 95.7578 263.43 94.8359 264.961 94.1797C266.492 93.5078 268.273 93.1719 270.305 93.1719C272.102 93.1719 273.711 93.4609 275.133 94.0391C276.555 94.6172 277.758 95.4453 278.742 96.5234C279.742 97.6016 280.5 98.9062 281.016 100.438C281.547 101.969 281.812 103.688 281.812 105.594V108.805H261.094V103.859H274.102V103.25C274.117 102.406 273.969 101.688 273.656 101.094C273.359 100.5 272.922 100.047 272.344 99.7344C271.766 99.4219 271.062 99.2656 270.234 99.2656C269.375 99.2656 268.664 99.4531 268.102 99.8281C267.555 100.203 267.125 100.719 266.812 101.375C266.516 102.016 266.305 102.758 266.18 103.602C266.055 104.445 265.992 105.336 265.992 106.273V107.164C265.992 108.102 266.117 108.953 266.367 109.719C266.633 110.484 267.008 111.141 267.492 111.688C267.992 112.219 268.586 112.633 269.273 112.93C269.977 113.227 270.773 113.375 271.664 113.375C272.742 113.375 273.805 113.172 274.852 112.766C275.898 112.359 276.797 111.688 277.547 110.75L281.133 115.016C280.617 115.75 279.883 116.461 278.93 117.148C277.992 117.836 276.867 118.398 275.555 118.836C274.242 119.258 272.773 119.469 271.148 119.469ZM292.781 99.0547V119H284.883V93.6406H292.289L292.781 99.0547ZM291.844 105.453L289.992 105.5C289.992 103.562 290.227 101.836 290.695 100.32C291.164 98.7891 291.828 97.4922 292.688 96.4297C293.547 95.3672 294.57 94.5625 295.758 94.0156C296.961 93.4531 298.297 93.1719 299.766 93.1719C300.938 93.1719 302.008 93.3438 302.977 93.6875C303.961 94.0312 304.805 94.5859 305.508 95.3516C306.227 96.1172 306.773 97.1328 307.148 98.3984C307.539 99.6484 307.734 101.195 307.734 103.039V119H299.789V103.016C299.789 102 299.648 101.227 299.367 100.695C299.086 100.148 298.68 99.7734 298.148 99.5703C297.617 99.3672 296.969 99.2656 296.203 99.2656C295.391 99.2656 294.703 99.4219 294.141 99.7344C293.578 100.047 293.125 100.484 292.781 101.047C292.453 101.594 292.211 102.242 292.055 102.992C291.914 103.742 291.844 104.562 291.844 105.453ZM325.477 93.6406V99.125H310.195V93.6406H325.477ZM313.406 87.3359H321.305V110.727C321.305 111.398 321.383 111.922 321.539 112.297C321.695 112.656 321.961 112.914 322.336 113.07C322.727 113.211 323.242 113.281 323.883 113.281C324.336 113.281 324.711 113.273 325.008 113.258C325.305 113.227 325.586 113.188 325.852 113.141V118.789C325.18 119.008 324.477 119.172 323.742 119.281C323.008 119.406 322.227 119.469 321.398 119.469C319.711 119.469 318.266 119.203 317.062 118.672C315.875 118.141 314.969 117.305 314.344 116.164C313.719 115.023 313.406 113.539 313.406 111.711V87.3359ZM341.789 112.625V102.172C341.789 101.453 341.688 100.836 341.484 100.32C341.281 99.8047 340.961 99.4062 340.523 99.125C340.086 98.8281 339.5 98.6797 338.766 98.6797C338.172 98.6797 337.664 98.7812 337.242 98.9844C336.82 99.1875 336.5 99.4922 336.281 99.8984C336.062 100.305 335.953 100.82 335.953 101.445H328.055C328.055 100.273 328.312 99.1875 328.828 98.1875C329.359 97.1719 330.109 96.2891 331.078 95.5391C332.062 94.7891 333.234 94.2109 334.594 93.8047C335.969 93.3828 337.5 93.1719 339.188 93.1719C341.203 93.1719 343 93.5078 344.578 94.1797C346.172 94.8516 347.43 95.8594 348.352 97.2031C349.273 98.5312 349.734 100.203 349.734 102.219V112.602C349.734 114.258 349.828 115.516 350.016 116.375C350.203 117.219 350.469 117.961 350.812 118.602V119H342.891C342.516 118.219 342.234 117.266 342.047 116.141C341.875 115 341.789 113.828 341.789 112.625ZM342.75 103.508L342.797 107.727H339.305C338.57 107.727 337.945 107.828 337.43 108.031C336.93 108.234 336.523 108.516 336.211 108.875C335.914 109.219 335.695 109.609 335.555 110.047C335.43 110.484 335.367 110.945 335.367 111.43C335.367 111.898 335.477 112.32 335.695 112.695C335.93 113.055 336.242 113.336 336.633 113.539C337.023 113.742 337.461 113.844 337.945 113.844C338.82 113.844 339.562 113.68 340.172 113.352C340.797 113.008 341.273 112.594 341.602 112.109C341.93 111.625 342.094 111.172 342.094 110.75L343.828 113.984C343.516 114.609 343.156 115.242 342.75 115.883C342.359 116.523 341.867 117.117 341.273 117.664C340.695 118.195 339.984 118.633 339.141 118.977C338.297 119.305 337.273 119.469 336.07 119.469C334.508 119.469 333.07 119.148 331.758 118.508C330.461 117.867 329.422 116.977 328.641 115.836C327.859 114.68 327.469 113.352 327.469 111.852C327.469 110.539 327.703 109.367 328.172 108.336C328.656 107.305 329.383 106.43 330.352 105.711C331.32 104.992 332.555 104.445 334.055 104.07C335.555 103.695 337.32 103.508 339.352 103.508H342.75ZM367.477 93.6406V99.125H352.195V93.6406H367.477ZM355.406 87.3359H363.305V110.727C363.305 111.398 363.383 111.922 363.539 112.297C363.695 112.656 363.961 112.914 364.336 113.07C364.727 113.211 365.242 113.281 365.883 113.281C366.336 113.281 366.711 113.273 367.008 113.258C367.305 113.227 367.586 113.188 367.852 113.141V118.789C367.18 119.008 366.477 119.172 365.742 119.281C365.008 119.406 364.227 119.469 363.398 119.469C361.711 119.469 360.266 119.203 359.062 118.672C357.875 118.141 356.969 117.305 356.344 116.164C355.719 115.023 355.406 113.539 355.406 111.711V87.3359ZM378.961 93.6406V119H371.039V93.6406H378.961ZM370.57 87.1016C370.57 85.9766 370.977 85.0547 371.789 84.3359C372.602 83.6172 373.656 83.2578 374.953 83.2578C376.25 83.2578 377.305 83.6172 378.117 84.3359C378.93 85.0547 379.336 85.9766 379.336 87.1016C379.336 88.2266 378.93 89.1484 378.117 89.8672C377.305 90.5859 376.25 90.9453 374.953 90.9453C373.656 90.9453 372.602 90.5859 371.789 89.8672C370.977 89.1484 370.57 88.2266 370.57 87.1016ZM382.852 106.578V106.086C382.852 104.227 383.117 102.516 383.648 100.953C384.18 99.375 384.961 98.0078 385.992 96.8516C387.023 95.6953 388.297 94.7969 389.812 94.1562C391.328 93.5 393.078 93.1719 395.062 93.1719C397.062 93.1719 398.82 93.5 400.336 94.1562C401.867 94.7969 403.148 95.6953 404.18 96.8516C405.211 98.0078 405.992 99.375 406.523 100.953C407.055 102.516 407.32 104.227 407.32 106.086V106.578C407.32 108.422 407.055 110.133 406.523 111.711C405.992 113.273 405.211 114.641 404.18 115.812C403.148 116.969 401.875 117.867 400.359 118.508C398.844 119.148 397.094 119.469 395.109 119.469C393.125 119.469 391.367 119.148 389.836 118.508C388.305 117.867 387.023 116.969 385.992 115.812C384.961 114.641 384.18 113.273 383.648 111.711C383.117 110.133 382.852 108.422 382.852 106.578ZM390.75 106.086V106.578C390.75 107.531 390.82 108.422 390.961 109.25C391.102 110.078 391.336 110.805 391.664 111.43C391.992 112.039 392.438 112.516 393 112.859C393.562 113.203 394.266 113.375 395.109 113.375C395.938 113.375 396.625 113.203 397.172 112.859C397.734 112.516 398.18 112.039 398.508 111.43C398.836 110.805 399.07 110.078 399.211 109.25C399.352 108.422 399.422 107.531 399.422 106.578V106.086C399.422 105.164 399.352 104.297 399.211 103.484C399.07 102.656 398.836 101.93 398.508 101.305C398.18 100.664 397.734 100.164 397.172 99.8047C396.609 99.4453 395.906 99.2656 395.062 99.2656C394.234 99.2656 393.539 99.4453 392.977 99.8047C392.43 100.164 391.992 100.664 391.664 101.305C391.336 101.93 391.102 102.656 390.961 103.484C390.82 104.297 390.75 105.164 390.75 106.086ZM418.594 99.0547V119H410.695V93.6406H418.102L418.594 99.0547ZM417.656 105.453L415.805 105.5C415.805 103.562 416.039 101.836 416.508 100.32C416.977 98.7891 417.641 97.4922 418.5 96.4297C419.359 95.3672 420.383 94.5625 421.57 94.0156C422.773 93.4531 424.109 93.1719 425.578 93.1719C426.75 93.1719 427.82 93.3438 428.789 93.6875C429.773 94.0312 430.617 94.5859 431.32 95.3516C432.039 96.1172 432.586 97.1328 432.961 98.3984C433.352 99.6484 433.547 101.195 433.547 103.039V119H425.602V103.016C425.602 102 425.461 101.227 425.18 100.695C424.898 100.148 424.492 99.7734 423.961 99.5703C423.43 99.3672 422.781 99.2656 422.016 99.2656C421.203 99.2656 420.516 99.4219 419.953 99.7344C419.391 100.047 418.938 100.484 418.594 101.047C418.266 101.594 418.023 102.242 417.867 102.992C417.727 103.742 417.656 104.562 417.656 105.453Z" fill="black"/>
<path d="M1134 0H1348C1356.28 0 1363 6.71573 1363 15V148C1363 156.284 1356.28 163 1348 163H1134V0Z" fill="#003585"/>
<path d="M1281 46.5H1216L1213.5 49V114L1216 116.5H1281L1283.5 114V49L1281 46.5ZM1278.5 111.5H1233.5V101.5H1245C1246.5 104.5 1250 106.5 1253.5 106.5C1259 106.5 1263.5 102 1263.5 96.5C1263.5 91 1259 86.5 1253.5 86.5C1248 86.5 1243.5 91 1243.5 96.5H1228.5V111.5H1218.5V51.5H1228.5V63C1225.5 64.5 1223.5 68 1223.5 71.5C1223.5 77 1228 81.5 1233.5 81.5C1239 81.5 1243.5 77 1243.5 71.5H1253.5C1253.5 77 1258 81.5 1263.5 81.5C1269 81.5 1273.5 77 1273.5 71.5C1273.5 66 1269 61.5 1263.5 61.5C1260 61.5 1256.5 63.5 1255 66.5H1242C1240.5 63.5 1237 61.5 1233.5 61.5V51.5H1278.5V111.5ZM1248.5 96.5C1248.5 93.5 1250.5 91.5 1253.5 91.5C1256.5 91.5 1258.5 93.5 1258.5 96.5C1258.5 99.5 1256.5 101.5 1253.5 101.5C1250.5 101.5 1248.5 99.5 1248.5 96.5ZM1233.5 66.5C1236.5 66.5 1238.5 68.5 1238.5 71.5C1238.5 74.5 1236.5 76.5 1233.5 76.5C1230.5 76.5 1228.5 74.5 1228.5 71.5C1228.5 68.5 1230.5 66.5 1233.5 66.5ZM1263.5 66.5C1266.5 66.5 1268.5 68.5 1268.5 71.5C1268.5 74.5 1266.5 76.5 1263.5 76.5C1260.5 76.5 1258.5 74.5 1258.5 71.5C1258.5 68.5 1260.5 66.5 1263.5 66.5Z" fill="white"/>
</svg>
