<svg width="1363" height="163" viewBox="0 0 1363 163" fill="none" xmlns="http://www.w3.org/2000/svg">
<path d="M0 15C0 6.71573 6.71573 0 15 0H37V163H15C6.71573 163 0 156.284 0 148V15Z" fill="#003585"/>
<rect width="1097" height="163" transform="translate(37)" fill="#F0F0F0"/>
<path d="M101.906 53.9219L94.3945 51.2383V48.0859L104.602 52.375V54.6367L101.906 53.9219ZM94.3945 56.1719L101.918 53.4297L104.602 52.7852V55.0352L94.3945 59.3242V56.1719ZM126.785 43.9375V61H123.27L116.414 49.5625V61H112.898V43.9375H116.414L123.281 55.3867V43.9375H126.785ZM131.859 43.9375L135.422 51.7188L138.984 43.9375H142.816L137.203 54.7891V61H133.641V54.7891L128.016 43.9375H131.859ZM153.914 55.3398H157.418C157.348 56.4883 157.031 57.5078 156.469 58.3984C155.914 59.2891 155.137 59.9844 154.137 60.4844C153.145 60.9844 151.949 61.2344 150.551 61.2344C149.457 61.2344 148.477 61.0469 147.609 60.6719C146.742 60.2891 146 59.7422 145.383 59.0312C144.773 58.3203 144.309 57.4609 143.988 56.4531C143.668 55.4453 143.508 54.3164 143.508 53.0664V51.8828C143.508 50.6328 143.672 49.5039 144 48.4961C144.336 47.4805 144.812 46.6172 145.43 45.9062C146.055 45.1953 146.801 44.6484 147.668 44.2656C148.535 43.8828 149.504 43.6914 150.574 43.6914C151.996 43.6914 153.195 43.9492 154.172 44.4648C155.156 44.9805 155.918 45.6914 156.457 46.5977C157.004 47.5039 157.332 48.5352 157.441 49.6914H153.926C153.887 49.0039 153.75 48.4219 153.516 47.9453C153.281 47.4609 152.926 47.0977 152.449 46.8555C151.98 46.6055 151.355 46.4805 150.574 46.4805C149.988 46.4805 149.477 46.5898 149.039 46.8086C148.602 47.0273 148.234 47.3594 147.938 47.8047C147.641 48.25 147.418 48.8125 147.27 49.4922C147.129 50.1641 147.059 50.9531 147.059 51.8594V53.0664C147.059 53.9492 147.125 54.7266 147.258 55.3984C147.391 56.0625 147.594 56.625 147.867 57.0859C148.148 57.5391 148.508 57.8828 148.945 58.1172C149.391 58.3438 149.926 58.457 150.551 58.457C151.285 58.457 151.891 58.3398 152.367 58.1055C152.844 57.8711 153.207 57.5234 153.457 57.0625C153.715 56.6016 153.867 56.0273 153.914 55.3398ZM172.699 43.9375V61H169.195V43.9375H172.699ZM177.949 43.9375V46.6914H164.027V43.9375H177.949ZM182.297 51.0859V61H178.922V48.3203H182.098L182.297 51.0859ZM186.117 48.2383L186.059 51.3672C185.895 51.3438 185.695 51.3242 185.461 51.3086C185.234 51.2852 185.027 51.2734 184.84 51.2734C184.363 51.2734 183.949 51.3359 183.598 51.4609C183.254 51.5781 182.965 51.7539 182.73 51.9883C182.504 52.2227 182.332 52.5078 182.215 52.8438C182.105 53.1797 182.043 53.5625 182.027 53.9922L181.348 53.7812C181.348 52.9609 181.43 52.207 181.594 51.5195C181.758 50.8242 181.996 50.2188 182.309 49.7031C182.629 49.1875 183.02 48.7891 183.48 48.5078C183.941 48.2266 184.469 48.0859 185.062 48.0859C185.25 48.0859 185.441 48.1016 185.637 48.1328C185.832 48.1562 185.992 48.1914 186.117 48.2383ZM194.156 58.1406V52.4922C194.156 52.0859 194.09 51.7383 193.957 51.4492C193.824 51.1523 193.617 50.9219 193.336 50.7578C193.062 50.5938 192.707 50.5117 192.27 50.5117C191.895 50.5117 191.57 50.5781 191.297 50.7109C191.023 50.8359 190.812 51.0195 190.664 51.2617C190.516 51.4961 190.441 51.7734 190.441 52.0938H187.066C187.066 51.5547 187.191 51.043 187.441 50.5586C187.691 50.0742 188.055 49.6484 188.531 49.2812C189.008 48.9062 189.574 48.6133 190.23 48.4023C190.895 48.1914 191.637 48.0859 192.457 48.0859C193.441 48.0859 194.316 48.25 195.082 48.5781C195.848 48.9062 196.449 49.3984 196.887 50.0547C197.332 50.7109 197.555 51.5312 197.555 52.5156V57.9414C197.555 58.6367 197.598 59.207 197.684 59.6523C197.77 60.0898 197.895 60.4727 198.059 60.8008V61H194.648C194.484 60.6562 194.359 60.2266 194.273 59.7109C194.195 59.1875 194.156 58.6641 194.156 58.1406ZM194.602 53.2773L194.625 55.1875H192.738C192.293 55.1875 191.906 55.2383 191.578 55.3398C191.25 55.4414 190.98 55.5859 190.77 55.7734C190.559 55.9531 190.402 56.1641 190.301 56.4062C190.207 56.6484 190.16 56.9141 190.16 57.2031C190.16 57.4922 190.227 57.7539 190.359 57.9883C190.492 58.2148 190.684 58.3945 190.934 58.5273C191.184 58.6523 191.477 58.7148 191.812 58.7148C192.32 58.7148 192.762 58.6133 193.137 58.4102C193.512 58.207 193.801 57.957 194.004 57.6602C194.215 57.3633 194.324 57.082 194.332 56.8164L195.223 58.2461C195.098 58.5664 194.926 58.8984 194.707 59.2422C194.496 59.5859 194.227 59.9102 193.898 60.2148C193.57 60.5117 193.176 60.7578 192.715 60.9531C192.254 61.1406 191.707 61.2344 191.074 61.2344C190.27 61.2344 189.539 61.0742 188.883 60.7539C188.234 60.4258 187.719 59.9766 187.336 59.4062C186.961 58.8281 186.773 58.1719 186.773 57.4375C186.773 56.7734 186.898 56.1836 187.148 55.668C187.398 55.1523 187.766 54.7188 188.25 54.3672C188.742 54.0078 189.355 53.7383 190.09 53.5586C190.824 53.3711 191.676 53.2773 192.645 53.2773H194.602ZM204.457 61H201.059V47.1953C201.059 46.2344 201.246 45.4258 201.621 44.7695C202.004 44.1055 202.539 43.6055 203.227 43.2695C203.922 42.9258 204.746 42.7539 205.699 42.7539C206.012 42.7539 206.312 42.7773 206.602 42.8242C206.891 42.8633 207.172 42.9141 207.445 42.9766L207.41 45.5195C207.262 45.4805 207.105 45.4531 206.941 45.4375C206.777 45.4219 206.586 45.4141 206.367 45.4141C205.961 45.4141 205.613 45.4844 205.324 45.625C205.043 45.7578 204.828 45.957 204.68 46.2227C204.531 46.4883 204.457 46.8125 204.457 47.1953V61ZM207.023 48.3203V50.7109H199.172V48.3203H207.023ZM212.051 61H208.676V47.7461C208.676 46.668 208.895 45.7578 209.332 45.0156C209.77 44.2734 210.402 43.7109 211.23 43.3281C212.059 42.9453 213.055 42.7539 214.219 42.7539C214.883 42.7539 215.527 42.8203 216.152 42.9531C216.777 43.0781 217.422 43.2422 218.086 43.4453L217.605 46.1523C217.176 46.0195 216.711 45.8945 216.211 45.7773C215.719 45.6602 215.125 45.6016 214.43 45.6016C213.648 45.6016 213.055 45.7852 212.648 46.1523C212.25 46.5117 212.051 47.043 212.051 47.7461V61ZM214.57 48.3203V50.7109H206.777V48.3203H214.57ZM219.668 48.3203V61H216.27V48.3203H219.668ZM227.707 58.5977C228.121 58.5977 228.488 58.5195 228.809 58.3633C229.129 58.1992 229.379 57.9727 229.559 57.6836C229.746 57.3867 229.844 57.0391 229.852 56.6406H233.027C233.02 57.5312 232.781 58.3242 232.312 59.0195C231.844 59.707 231.215 60.25 230.426 60.6484C229.637 61.0391 228.754 61.2344 227.777 61.2344C226.793 61.2344 225.934 61.0703 225.199 60.7422C224.473 60.4141 223.867 59.9609 223.383 59.3828C222.898 58.7969 222.535 58.1172 222.293 57.3438C222.051 56.5625 221.93 55.7266 221.93 54.8359V54.4961C221.93 53.5977 222.051 52.7617 222.293 51.9883C222.535 51.207 222.898 50.5273 223.383 49.9492C223.867 49.3633 224.473 48.9062 225.199 48.5781C225.926 48.25 226.777 48.0859 227.754 48.0859C228.793 48.0859 229.703 48.2852 230.484 48.6836C231.273 49.082 231.891 49.6523 232.336 50.3945C232.789 51.1289 233.02 52 233.027 53.0078H229.852C229.844 52.5859 229.754 52.2031 229.582 51.8594C229.418 51.5156 229.176 51.2422 228.855 51.0391C228.543 50.8281 228.156 50.7227 227.695 50.7227C227.203 50.7227 226.801 50.8281 226.488 51.0391C226.176 51.2422 225.934 51.5234 225.762 51.8828C225.59 52.2344 225.469 52.6367 225.398 53.0898C225.336 53.5352 225.305 54.0039 225.305 54.4961V54.8359C225.305 55.3281 225.336 55.8008 225.398 56.2539C225.461 56.707 225.578 57.1094 225.75 57.4609C225.93 57.8125 226.176 58.0898 226.488 58.293C226.801 58.4961 227.207 58.5977 227.707 58.5977ZM248.109 46.8555L243.469 61H239.73L246.07 43.9375H248.449L248.109 46.8555ZM251.965 61L247.312 46.8555L246.938 43.9375H249.34L255.715 61H251.965ZM251.754 54.6484V57.4023H242.742V54.6484H251.754ZM262.324 58.5977C262.738 58.5977 263.105 58.5195 263.426 58.3633C263.746 58.1992 263.996 57.9727 264.176 57.6836C264.363 57.3867 264.461 57.0391 264.469 56.6406H267.645C267.637 57.5312 267.398 58.3242 266.93 59.0195C266.461 59.707 265.832 60.25 265.043 60.6484C264.254 61.0391 263.371 61.2344 262.395 61.2344C261.41 61.2344 260.551 61.0703 259.816 60.7422C259.09 60.4141 258.484 59.9609 258 59.3828C257.516 58.7969 257.152 58.1172 256.91 57.3438C256.668 56.5625 256.547 55.7266 256.547 54.8359V54.4961C256.547 53.5977 256.668 52.7617 256.91 51.9883C257.152 51.207 257.516 50.5273 258 49.9492C258.484 49.3633 259.09 48.9062 259.816 48.5781C260.543 48.25 261.395 48.0859 262.371 48.0859C263.41 48.0859 264.32 48.2852 265.102 48.6836C265.891 49.082 266.508 49.6523 266.953 50.3945C267.406 51.1289 267.637 52 267.645 53.0078H264.469C264.461 52.5859 264.371 52.2031 264.199 51.8594C264.035 51.5156 263.793 51.2422 263.473 51.0391C263.16 50.8281 262.773 50.7227 262.312 50.7227C261.82 50.7227 261.418 50.8281 261.105 51.0391C260.793 51.2422 260.551 51.5234 260.379 51.8828C260.207 52.2344 260.086 52.6367 260.016 53.0898C259.953 53.5352 259.922 54.0039 259.922 54.4961V54.8359C259.922 55.3281 259.953 55.8008 260.016 56.2539C260.078 56.707 260.195 57.1094 260.367 57.4609C260.547 57.8125 260.793 58.0898 261.105 58.293C261.418 58.4961 261.824 58.5977 262.324 58.5977ZM274.84 58.5977C275.254 58.5977 275.621 58.5195 275.941 58.3633C276.262 58.1992 276.512 57.9727 276.691 57.6836C276.879 57.3867 276.977 57.0391 276.984 56.6406H280.16C280.152 57.5312 279.914 58.3242 279.445 59.0195C278.977 59.707 278.348 60.25 277.559 60.6484C276.77 61.0391 275.887 61.2344 274.91 61.2344C273.926 61.2344 273.066 61.0703 272.332 60.7422C271.605 60.4141 271 59.9609 270.516 59.3828C270.031 58.7969 269.668 58.1172 269.426 57.3438C269.184 56.5625 269.062 55.7266 269.062 54.8359V54.4961C269.062 53.5977 269.184 52.7617 269.426 51.9883C269.668 51.207 270.031 50.5273 270.516 49.9492C271 49.3633 271.605 48.9062 272.332 48.5781C273.059 48.25 273.91 48.0859 274.887 48.0859C275.926 48.0859 276.836 48.2852 277.617 48.6836C278.406 49.082 279.023 49.6523 279.469 50.3945C279.922 51.1289 280.152 52 280.16 53.0078H276.984C276.977 52.5859 276.887 52.2031 276.715 51.8594C276.551 51.5156 276.309 51.2422 275.988 51.0391C275.676 50.8281 275.289 50.7227 274.828 50.7227C274.336 50.7227 273.934 50.8281 273.621 51.0391C273.309 51.2422 273.066 51.5234 272.895 51.8828C272.723 52.2344 272.602 52.6367 272.531 53.0898C272.469 53.5352 272.438 54.0039 272.438 54.4961V54.8359C272.438 55.3281 272.469 55.8008 272.531 56.2539C272.594 56.707 272.711 57.1094 272.883 57.4609C273.062 57.8125 273.309 58.0898 273.621 58.293C273.934 58.4961 274.34 58.5977 274.84 58.5977ZM285.68 48.3203V61H282.293V48.3203H285.68ZM282.082 45.0156C282.082 44.5234 282.254 44.1172 282.598 43.7969C282.941 43.4766 283.402 43.3164 283.98 43.3164C284.551 43.3164 285.008 43.4766 285.352 43.7969C285.703 44.1172 285.879 44.5234 285.879 45.0156C285.879 45.5078 285.703 45.9141 285.352 46.2344C285.008 46.5547 284.551 46.7148 283.98 46.7148C283.402 46.7148 282.941 46.5547 282.598 46.2344C282.254 45.9141 282.082 45.5078 282.082 45.0156ZM295.957 58.2344V43H299.355V61H296.297L295.957 58.2344ZM287.941 54.8125V54.5664C287.941 53.5977 288.051 52.7188 288.27 51.9297C288.488 51.1328 288.809 50.4492 289.23 49.8789C289.652 49.3086 290.172 48.8672 290.789 48.5547C291.406 48.2422 292.109 48.0859 292.898 48.0859C293.641 48.0859 294.289 48.2422 294.844 48.5547C295.406 48.8672 295.883 49.3125 296.273 49.8906C296.672 50.4609 296.992 51.1367 297.234 51.918C297.477 52.6914 297.652 53.5391 297.762 54.4609V55C297.652 55.8828 297.477 56.7031 297.234 57.4609C296.992 58.2188 296.672 58.8828 296.273 59.4531C295.883 60.0156 295.406 60.4531 294.844 60.7656C294.281 61.0781 293.625 61.2344 292.875 61.2344C292.086 61.2344 291.383 61.0742 290.766 60.7539C290.156 60.4336 289.641 59.9844 289.219 59.4062C288.805 58.8281 288.488 58.1484 288.27 57.3672C288.051 56.5859 287.941 55.7344 287.941 54.8125ZM291.316 54.5664V54.8125C291.316 55.3359 291.355 55.8242 291.434 56.2773C291.52 56.7305 291.656 57.1328 291.844 57.4844C292.039 57.8281 292.289 58.0977 292.594 58.293C292.906 58.4805 293.285 58.5742 293.73 58.5742C294.309 58.5742 294.785 58.4453 295.16 58.1875C295.535 57.9219 295.82 57.5586 296.016 57.0977C296.219 56.6367 296.336 56.1055 296.367 55.5039V53.9688C296.344 53.4766 296.273 53.0352 296.156 52.6445C296.047 52.2461 295.883 51.9062 295.664 51.625C295.453 51.3438 295.188 51.125 294.867 50.9688C294.555 50.8125 294.184 50.7344 293.754 50.7344C293.316 50.7344 292.941 50.8359 292.629 51.0391C292.316 51.2344 292.062 51.5039 291.867 51.8477C291.68 52.1914 291.539 52.5977 291.445 53.0664C291.359 53.5273 291.316 54.0273 291.316 54.5664ZM307.828 61.2344C306.844 61.2344 305.961 61.0781 305.18 60.7656C304.398 60.4453 303.734 60.0039 303.188 59.4414C302.648 58.8789 302.234 58.2266 301.945 57.4844C301.656 56.7344 301.512 55.9375 301.512 55.0938V54.625C301.512 53.6641 301.648 52.7852 301.922 51.9883C302.195 51.1914 302.586 50.5 303.094 49.9141C303.609 49.3281 304.234 48.8789 304.969 48.5664C305.703 48.2461 306.531 48.0859 307.453 48.0859C308.352 48.0859 309.148 48.2344 309.844 48.5312C310.539 48.8281 311.121 49.25 311.59 49.7969C312.066 50.3438 312.426 51 312.668 51.7656C312.91 52.5234 313.031 53.3672 313.031 54.2969V55.7031H302.953V53.4531H309.715V53.1953C309.715 52.7266 309.629 52.3086 309.457 51.9414C309.293 51.5664 309.043 51.2695 308.707 51.0508C308.371 50.832 307.941 50.7227 307.418 50.7227C306.973 50.7227 306.59 50.8203 306.27 51.0156C305.949 51.2109 305.688 51.4844 305.484 51.8359C305.289 52.1875 305.141 52.6016 305.039 53.0781C304.945 53.5469 304.898 54.0625 304.898 54.625V55.0938C304.898 55.6016 304.969 56.0703 305.109 56.5C305.258 56.9297 305.465 57.3008 305.73 57.6133C306.004 57.9258 306.332 58.168 306.715 58.3398C307.105 58.5117 307.547 58.5977 308.039 58.5977C308.648 58.5977 309.215 58.4805 309.738 58.2461C310.27 58.0039 310.727 57.6406 311.109 57.1562L312.75 58.9375C312.484 59.3203 312.121 59.6875 311.66 60.0391C311.207 60.3906 310.66 60.6797 310.02 60.9062C309.379 61.125 308.648 61.2344 307.828 61.2344ZM318.258 51.0273V61H314.883V48.3203H318.047L318.258 51.0273ZM317.766 54.2148H316.852C316.852 53.2773 316.973 52.4336 317.215 51.6836C317.457 50.9258 317.797 50.2812 318.234 49.75C318.672 49.2109 319.191 48.8008 319.793 48.5195C320.402 48.2305 321.082 48.0859 321.832 48.0859C322.426 48.0859 322.969 48.1719 323.461 48.3438C323.953 48.5156 324.375 48.7891 324.727 49.1641C325.086 49.5391 325.359 50.0352 325.547 50.6523C325.742 51.2695 325.84 52.0234 325.84 52.9141V61H322.441V52.9023C322.441 52.3398 322.363 51.9023 322.207 51.5898C322.051 51.2773 321.82 51.0586 321.516 50.9336C321.219 50.8008 320.852 50.7344 320.414 50.7344C319.961 50.7344 319.566 50.8242 319.23 51.0039C318.902 51.1836 318.629 51.4336 318.41 51.7539C318.199 52.0664 318.039 52.4336 317.93 52.8555C317.82 53.2773 317.766 53.7305 317.766 54.2148ZM334.617 48.3203V50.7109H327.234V48.3203H334.617ZM329.062 45.1914H332.438V57.1797C332.438 57.5469 332.484 57.8281 332.578 58.0234C332.68 58.2188 332.828 58.3555 333.023 58.4336C333.219 58.5039 333.465 58.5391 333.762 58.5391C333.973 58.5391 334.16 58.5312 334.324 58.5156C334.496 58.4922 334.641 58.4688 334.758 58.4453L334.77 60.9297C334.48 61.0234 334.168 61.0977 333.832 61.1523C333.496 61.207 333.125 61.2344 332.719 61.2344C331.977 61.2344 331.328 61.1133 330.773 60.8711C330.227 60.6211 329.805 60.2227 329.508 59.6758C329.211 59.1289 329.062 58.4102 329.062 57.5195V45.1914ZM343.395 57.4961C343.395 57.2539 343.324 57.0352 343.184 56.8398C343.043 56.6445 342.781 56.4648 342.398 56.3008C342.023 56.1289 341.48 55.9727 340.77 55.832C340.129 55.6914 339.531 55.5156 338.977 55.3047C338.43 55.0859 337.953 54.8242 337.547 54.5195C337.148 54.2148 336.836 53.8555 336.609 53.4414C336.383 53.0195 336.27 52.5391 336.27 52C336.27 51.4688 336.383 50.9688 336.609 50.5C336.844 50.0312 337.176 49.6172 337.605 49.2578C338.043 48.8906 338.574 48.6055 339.199 48.4023C339.832 48.1914 340.543 48.0859 341.332 48.0859C342.434 48.0859 343.379 48.2617 344.168 48.6133C344.965 48.9648 345.574 49.4492 345.996 50.0664C346.426 50.6758 346.641 51.3711 346.641 52.1523H343.266C343.266 51.8242 343.195 51.5312 343.055 51.2734C342.922 51.0078 342.711 50.8008 342.422 50.6523C342.141 50.4961 341.773 50.418 341.32 50.418C340.945 50.418 340.621 50.4844 340.348 50.6172C340.074 50.7422 339.863 50.9141 339.715 51.1328C339.574 51.3438 339.504 51.5781 339.504 51.8359C339.504 52.0312 339.543 52.207 339.621 52.3633C339.707 52.5117 339.844 52.6484 340.031 52.7734C340.219 52.8984 340.461 53.0156 340.758 53.125C341.062 53.2266 341.438 53.3203 341.883 53.4062C342.797 53.5938 343.613 53.8398 344.332 54.1445C345.051 54.4414 345.621 54.8477 346.043 55.3633C346.465 55.8711 346.676 56.5391 346.676 57.3672C346.676 57.9297 346.551 58.4453 346.301 58.9141C346.051 59.3828 345.691 59.793 345.223 60.1445C344.754 60.4883 344.191 60.7578 343.535 60.9531C342.887 61.1406 342.156 61.2344 341.344 61.2344C340.164 61.2344 339.164 61.0234 338.344 60.6016C337.531 60.1797 336.914 59.6445 336.492 58.9961C336.078 58.3398 335.871 57.668 335.871 56.9805H339.07C339.086 57.4414 339.203 57.8125 339.422 58.0938C339.648 58.375 339.934 58.5781 340.277 58.7031C340.629 58.8281 341.008 58.8906 341.414 58.8906C341.852 58.8906 342.215 58.832 342.504 58.7148C342.793 58.5898 343.012 58.4258 343.16 58.2227C343.316 58.0117 343.395 57.7695 343.395 57.4961ZM361.992 46.8555L357.352 61H353.613L359.953 43.9375H362.332L361.992 46.8555ZM365.848 61L361.195 46.8555L360.82 43.9375H363.223L369.598 61H365.848ZM365.637 54.6484V57.4023H356.625V54.6484H365.637ZM373.898 51.0273V61H370.523V48.3203H373.688L373.898 51.0273ZM373.406 54.2148H372.492C372.492 53.2773 372.613 52.4336 372.855 51.6836C373.098 50.9258 373.438 50.2812 373.875 49.75C374.312 49.2109 374.832 48.8008 375.434 48.5195C376.043 48.2305 376.723 48.0859 377.473 48.0859C378.066 48.0859 378.609 48.1719 379.102 48.3438C379.594 48.5156 380.016 48.7891 380.367 49.1641C380.727 49.5391 381 50.0352 381.188 50.6523C381.383 51.2695 381.48 52.0234 381.48 52.9141V61H378.082V52.9023C378.082 52.3398 378.004 51.9023 377.848 51.5898C377.691 51.2773 377.461 51.0586 377.156 50.9336C376.859 50.8008 376.492 50.7344 376.055 50.7344C375.602 50.7344 375.207 50.8242 374.871 51.0039C374.543 51.1836 374.27 51.4336 374.051 51.7539C373.84 52.0664 373.68 52.4336 373.57 52.8555C373.461 53.2773 373.406 53.7305 373.406 54.2148ZM390.891 58.1406V52.4922C390.891 52.0859 390.824 51.7383 390.691 51.4492C390.559 51.1523 390.352 50.9219 390.07 50.7578C389.797 50.5938 389.441 50.5117 389.004 50.5117C388.629 50.5117 388.305 50.5781 388.031 50.7109C387.758 50.8359 387.547 51.0195 387.398 51.2617C387.25 51.4961 387.176 51.7734 387.176 52.0938H383.801C383.801 51.5547 383.926 51.043 384.176 50.5586C384.426 50.0742 384.789 49.6484 385.266 49.2812C385.742 48.9062 386.309 48.6133 386.965 48.4023C387.629 48.1914 388.371 48.0859 389.191 48.0859C390.176 48.0859 391.051 48.25 391.816 48.5781C392.582 48.9062 393.184 49.3984 393.621 50.0547C394.066 50.7109 394.289 51.5312 394.289 52.5156V57.9414C394.289 58.6367 394.332 59.207 394.418 59.6523C394.504 60.0898 394.629 60.4727 394.793 60.8008V61H391.383C391.219 60.6562 391.094 60.2266 391.008 59.7109C390.93 59.1875 390.891 58.6641 390.891 58.1406ZM391.336 53.2773L391.359 55.1875H389.473C389.027 55.1875 388.641 55.2383 388.312 55.3398C387.984 55.4414 387.715 55.5859 387.504 55.7734C387.293 55.9531 387.137 56.1641 387.035 56.4062C386.941 56.6484 386.895 56.9141 386.895 57.2031C386.895 57.4922 386.961 57.7539 387.094 57.9883C387.227 58.2148 387.418 58.3945 387.668 58.5273C387.918 58.6523 388.211 58.7148 388.547 58.7148C389.055 58.7148 389.496 58.6133 389.871 58.4102C390.246 58.207 390.535 57.957 390.738 57.6602C390.949 57.3633 391.059 57.082 391.066 56.8164L391.957 58.2461C391.832 58.5664 391.66 58.8984 391.441 59.2422C391.23 59.5859 390.961 59.9102 390.633 60.2148C390.305 60.5117 389.91 60.7578 389.449 60.9531C388.988 61.1406 388.441 61.2344 387.809 61.2344C387.004 61.2344 386.273 61.0742 385.617 60.7539C384.969 60.4258 384.453 59.9766 384.07 59.4062C383.695 58.8281 383.508 58.1719 383.508 57.4375C383.508 56.7734 383.633 56.1836 383.883 55.668C384.133 55.1523 384.5 54.7188 384.984 54.3672C385.477 54.0078 386.09 53.7383 386.824 53.5586C387.559 53.3711 388.41 53.2773 389.379 53.2773H391.336ZM400.453 43V61H397.066V43H400.453ZM407.004 59.5703L410.367 48.3203H413.988L408.891 62.9102C408.781 63.2305 408.633 63.5742 408.445 63.9414C408.266 64.3086 408.02 64.6562 407.707 64.9844C407.402 65.3203 407.016 65.5938 406.547 65.8047C406.086 66.0156 405.52 66.1211 404.848 66.1211C404.527 66.1211 404.266 66.1016 404.062 66.0625C403.859 66.0234 403.617 65.9688 403.336 65.8984V63.4258C403.422 63.4258 403.512 63.4258 403.605 63.4258C403.699 63.4336 403.789 63.4375 403.875 63.4375C404.32 63.4375 404.684 63.3867 404.965 63.2852C405.246 63.1836 405.473 63.0273 405.645 62.8164C405.816 62.6133 405.953 62.3477 406.055 62.0195L407.004 59.5703ZM405.598 48.3203L408.352 57.5078L408.832 61.082L406.535 61.3281L401.977 48.3203H405.598ZM422.191 57.4961C422.191 57.2539 422.121 57.0352 421.98 56.8398C421.84 56.6445 421.578 56.4648 421.195 56.3008C420.82 56.1289 420.277 55.9727 419.566 55.832C418.926 55.6914 418.328 55.5156 417.773 55.3047C417.227 55.0859 416.75 54.8242 416.344 54.5195C415.945 54.2148 415.633 53.8555 415.406 53.4414C415.18 53.0195 415.066 52.5391 415.066 52C415.066 51.4688 415.18 50.9688 415.406 50.5C415.641 50.0312 415.973 49.6172 416.402 49.2578C416.84 48.8906 417.371 48.6055 417.996 48.4023C418.629 48.1914 419.34 48.0859 420.129 48.0859C421.23 48.0859 422.176 48.2617 422.965 48.6133C423.762 48.9648 424.371 49.4492 424.793 50.0664C425.223 50.6758 425.438 51.3711 425.438 52.1523H422.062C422.062 51.8242 421.992 51.5312 421.852 51.2734C421.719 51.0078 421.508 50.8008 421.219 50.6523C420.938 50.4961 420.57 50.418 420.117 50.418C419.742 50.418 419.418 50.4844 419.145 50.6172C418.871 50.7422 418.66 50.9141 418.512 51.1328C418.371 51.3438 418.301 51.5781 418.301 51.8359C418.301 52.0312 418.34 52.207 418.418 52.3633C418.504 52.5117 418.641 52.6484 418.828 52.7734C419.016 52.8984 419.258 53.0156 419.555 53.125C419.859 53.2266 420.234 53.3203 420.68 53.4062C421.594 53.5938 422.41 53.8398 423.129 54.1445C423.848 54.4414 424.418 54.8477 424.84 55.3633C425.262 55.8711 425.473 56.5391 425.473 57.3672C425.473 57.9297 425.348 58.4453 425.098 58.9141C424.848 59.3828 424.488 59.793 424.02 60.1445C423.551 60.4883 422.988 60.7578 422.332 60.9531C421.684 61.1406 420.953 61.2344 420.141 61.2344C418.961 61.2344 417.961 61.0234 417.141 60.6016C416.328 60.1797 415.711 59.6445 415.289 58.9961C414.875 58.3398 414.668 57.668 414.668 56.9805H417.867C417.883 57.4414 418 57.8125 418.219 58.0938C418.445 58.375 418.73 58.5781 419.074 58.7031C419.426 58.8281 419.805 58.8906 420.211 58.8906C420.648 58.8906 421.012 58.832 421.301 58.7148C421.59 58.5898 421.809 58.4258 421.957 58.2227C422.113 58.0117 422.191 57.7695 422.191 57.4961ZM431.227 48.3203V61H427.84V48.3203H431.227ZM427.629 45.0156C427.629 44.5234 427.801 44.1172 428.145 43.7969C428.488 43.4766 428.949 43.3164 429.527 43.3164C430.098 43.3164 430.555 43.4766 430.898 43.7969C431.25 44.1172 431.426 44.5234 431.426 45.0156C431.426 45.5078 431.25 45.9141 430.898 46.2344C430.555 46.5547 430.098 46.7148 429.527 46.7148C428.949 46.7148 428.488 46.5547 428.145 46.2344C427.801 45.9141 427.629 45.5078 427.629 45.0156ZM440.871 57.4961C440.871 57.2539 440.801 57.0352 440.66 56.8398C440.52 56.6445 440.258 56.4648 439.875 56.3008C439.5 56.1289 438.957 55.9727 438.246 55.832C437.605 55.6914 437.008 55.5156 436.453 55.3047C435.906 55.0859 435.43 54.8242 435.023 54.5195C434.625 54.2148 434.312 53.8555 434.086 53.4414C433.859 53.0195 433.746 52.5391 433.746 52C433.746 51.4688 433.859 50.9688 434.086 50.5C434.32 50.0312 434.652 49.6172 435.082 49.2578C435.52 48.8906 436.051 48.6055 436.676 48.4023C437.309 48.1914 438.02 48.0859 438.809 48.0859C439.91 48.0859 440.855 48.2617 441.645 48.6133C442.441 48.9648 443.051 49.4492 443.473 50.0664C443.902 50.6758 444.117 51.3711 444.117 52.1523H440.742C440.742 51.8242 440.672 51.5312 440.531 51.2734C440.398 51.0078 440.188 50.8008 439.898 50.6523C439.617 50.4961 439.25 50.418 438.797 50.418C438.422 50.418 438.098 50.4844 437.824 50.6172C437.551 50.7422 437.34 50.9141 437.191 51.1328C437.051 51.3438 436.98 51.5781 436.98 51.8359C436.98 52.0312 437.02 52.207 437.098 52.3633C437.184 52.5117 437.32 52.6484 437.508 52.7734C437.695 52.8984 437.938 53.0156 438.234 53.125C438.539 53.2266 438.914 53.3203 439.359 53.4062C440.273 53.5938 441.09 53.8398 441.809 54.1445C442.527 54.4414 443.098 54.8477 443.52 55.3633C443.941 55.8711 444.152 56.5391 444.152 57.3672C444.152 57.9297 444.027 58.4453 443.777 58.9141C443.527 59.3828 443.168 59.793 442.699 60.1445C442.23 60.4883 441.668 60.7578 441.012 60.9531C440.363 61.1406 439.633 61.2344 438.82 61.2344C437.641 61.2344 436.641 61.0234 435.82 60.6016C435.008 60.1797 434.391 59.6445 433.969 58.9961C433.555 58.3398 433.348 57.668 433.348 56.9805H436.547C436.562 57.4414 436.68 57.8125 436.898 58.0938C437.125 58.375 437.41 58.5781 437.754 58.7031C438.105 58.8281 438.484 58.8906 438.891 58.8906C439.328 58.8906 439.691 58.832 439.98 58.7148C440.27 58.5898 440.488 58.4258 440.637 58.2227C440.793 58.0117 440.871 57.7695 440.871 57.4961ZM462.422 55.3398H465.926C465.855 56.4883 465.539 57.5078 464.977 58.3984C464.422 59.2891 463.645 59.9844 462.645 60.4844C461.652 60.9844 460.457 61.2344 459.059 61.2344C457.965 61.2344 456.984 61.0469 456.117 60.6719C455.25 60.2891 454.508 59.7422 453.891 59.0312C453.281 58.3203 452.816 57.4609 452.496 56.4531C452.176 55.4453 452.016 54.3164 452.016 53.0664V51.8828C452.016 50.6328 452.18 49.5039 452.508 48.4961C452.844 47.4805 453.32 46.6172 453.938 45.9062C454.562 45.1953 455.309 44.6484 456.176 44.2656C457.043 43.8828 458.012 43.6914 459.082 43.6914C460.504 43.6914 461.703 43.9492 462.68 44.4648C463.664 44.9805 464.426 45.6914 464.965 46.5977C465.512 47.5039 465.84 48.5352 465.949 49.6914H462.434C462.395 49.0039 462.258 48.4219 462.023 47.9453C461.789 47.4609 461.434 47.0977 460.957 46.8555C460.488 46.6055 459.863 46.4805 459.082 46.4805C458.496 46.4805 457.984 46.5898 457.547 46.8086C457.109 47.0273 456.742 47.3594 456.445 47.8047C456.148 48.25 455.926 48.8125 455.777 49.4922C455.637 50.1641 455.566 50.9531 455.566 51.8594V53.0664C455.566 53.9492 455.633 54.7266 455.766 55.3984C455.898 56.0625 456.102 56.625 456.375 57.0859C456.656 57.5391 457.016 57.8828 457.453 58.1172C457.898 58.3438 458.434 58.457 459.059 58.457C459.793 58.457 460.398 58.3398 460.875 58.1055C461.352 57.8711 461.715 57.5234 461.965 57.0625C462.223 56.6016 462.375 56.0273 462.422 55.3398ZM467.484 54.7891V54.543C467.484 53.6133 467.617 52.7578 467.883 51.9766C468.148 51.1875 468.535 50.5039 469.043 49.9258C469.551 49.3477 470.176 48.8984 470.918 48.5781C471.66 48.25 472.512 48.0859 473.473 48.0859C474.434 48.0859 475.289 48.25 476.039 48.5781C476.789 48.8984 477.418 49.3477 477.926 49.9258C478.441 50.5039 478.832 51.1875 479.098 51.9766C479.363 52.7578 479.496 53.6133 479.496 54.543V54.7891C479.496 55.7109 479.363 56.5664 479.098 57.3555C478.832 58.1367 478.441 58.8203 477.926 59.4062C477.418 59.9844 476.793 60.4336 476.051 60.7539C475.309 61.0742 474.457 61.2344 473.496 61.2344C472.535 61.2344 471.68 61.0742 470.93 60.7539C470.188 60.4336 469.559 59.9844 469.043 59.4062C468.535 58.8203 468.148 58.1367 467.883 57.3555C467.617 56.5664 467.484 55.7109 467.484 54.7891ZM470.859 54.543V54.7891C470.859 55.3203 470.906 55.8164 471 56.2773C471.094 56.7383 471.242 57.1445 471.445 57.4961C471.656 57.8398 471.93 58.1094 472.266 58.3047C472.602 58.5 473.012 58.5977 473.496 58.5977C473.965 58.5977 474.367 58.5 474.703 58.3047C475.039 58.1094 475.309 57.8398 475.512 57.4961C475.715 57.1445 475.863 56.7383 475.957 56.2773C476.059 55.8164 476.109 55.3203 476.109 54.7891V54.543C476.109 54.0273 476.059 53.543 475.957 53.0898C475.863 52.6289 475.711 52.2227 475.5 51.8711C475.297 51.5117 475.027 51.2305 474.691 51.0273C474.355 50.8242 473.949 50.7227 473.473 50.7227C472.996 50.7227 472.59 50.8242 472.254 51.0273C471.926 51.2305 471.656 51.5117 471.445 51.8711C471.242 52.2227 471.094 52.6289 471 53.0898C470.906 53.543 470.859 54.0273 470.859 54.543ZM485.871 61H482.473V47.1953C482.473 46.2344 482.66 45.4258 483.035 44.7695C483.418 44.1055 483.953 43.6055 484.641 43.2695C485.336 42.9258 486.16 42.7539 487.113 42.7539C487.426 42.7539 487.727 42.7773 488.016 42.8242C488.305 42.8633 488.586 42.9141 488.859 42.9766L488.824 45.5195C488.676 45.4805 488.52 45.4531 488.355 45.4375C488.191 45.4219 488 45.4141 487.781 45.4141C487.375 45.4141 487.027 45.4844 486.738 45.625C486.457 45.7578 486.242 45.957 486.094 46.2227C485.945 46.4883 485.871 46.8125 485.871 47.1953V61ZM488.402 48.3203V50.7109H480.586V48.3203H488.402ZM494.473 61H491.074V47.1953C491.074 46.2344 491.262 45.4258 491.637 44.7695C492.02 44.1055 492.555 43.6055 493.242 43.2695C493.938 42.9258 494.762 42.7539 495.715 42.7539C496.027 42.7539 496.328 42.7773 496.617 42.8242C496.906 42.8633 497.188 42.9141 497.461 42.9766L497.426 45.5195C497.277 45.4805 497.121 45.4531 496.957 45.4375C496.793 45.4219 496.602 45.4141 496.383 45.4141C495.977 45.4141 495.629 45.4844 495.34 45.625C495.059 45.7578 494.844 45.957 494.695 46.2227C494.547 46.4883 494.473 46.8125 494.473 47.1953V61ZM497.004 48.3203V50.7109H489.188V48.3203H497.004ZM504.328 61.2344C503.344 61.2344 502.461 61.0781 501.68 60.7656C500.898 60.4453 500.234 60.0039 499.688 59.4414C499.148 58.8789 498.734 58.2266 498.445 57.4844C498.156 56.7344 498.012 55.9375 498.012 55.0938V54.625C498.012 53.6641 498.148 52.7852 498.422 51.9883C498.695 51.1914 499.086 50.5 499.594 49.9141C500.109 49.3281 500.734 48.8789 501.469 48.5664C502.203 48.2461 503.031 48.0859 503.953 48.0859C504.852 48.0859 505.648 48.2344 506.344 48.5312C507.039 48.8281 507.621 49.25 508.09 49.7969C508.566 50.3438 508.926 51 509.168 51.7656C509.41 52.5234 509.531 53.3672 509.531 54.2969V55.7031H499.453V53.4531H506.215V53.1953C506.215 52.7266 506.129 52.3086 505.957 51.9414C505.793 51.5664 505.543 51.2695 505.207 51.0508C504.871 50.832 504.441 50.7227 503.918 50.7227C503.473 50.7227 503.09 50.8203 502.77 51.0156C502.449 51.2109 502.188 51.4844 501.984 51.8359C501.789 52.1875 501.641 52.6016 501.539 53.0781C501.445 53.5469 501.398 54.0625 501.398 54.625V55.0938C501.398 55.6016 501.469 56.0703 501.609 56.5C501.758 56.9297 501.965 57.3008 502.23 57.6133C502.504 57.9258 502.832 58.168 503.215 58.3398C503.605 58.5117 504.047 58.5977 504.539 58.5977C505.148 58.5977 505.715 58.4805 506.238 58.2461C506.77 58.0039 507.227 57.6406 507.609 57.1562L509.25 58.9375C508.984 59.3203 508.621 59.6875 508.16 60.0391C507.707 60.3906 507.16 60.6797 506.52 60.9062C505.879 61.125 505.148 61.2344 504.328 61.2344ZM517.289 61.2344C516.305 61.2344 515.422 61.0781 514.641 60.7656C513.859 60.4453 513.195 60.0039 512.648 59.4414C512.109 58.8789 511.695 58.2266 511.406 57.4844C511.117 56.7344 510.973 55.9375 510.973 55.0938V54.625C510.973 53.6641 511.109 52.7852 511.383 51.9883C511.656 51.1914 512.047 50.5 512.555 49.9141C513.07 49.3281 513.695 48.8789 514.43 48.5664C515.164 48.2461 515.992 48.0859 516.914 48.0859C517.812 48.0859 518.609 48.2344 519.305 48.5312C520 48.8281 520.582 49.25 521.051 49.7969C521.527 50.3438 521.887 51 522.129 51.7656C522.371 52.5234 522.492 53.3672 522.492 54.2969V55.7031H512.414V53.4531H519.176V53.1953C519.176 52.7266 519.09 52.3086 518.918 51.9414C518.754 51.5664 518.504 51.2695 518.168 51.0508C517.832 50.832 517.402 50.7227 516.879 50.7227C516.434 50.7227 516.051 50.8203 515.73 51.0156C515.41 51.2109 515.148 51.4844 514.945 51.8359C514.75 52.1875 514.602 52.6016 514.5 53.0781C514.406 53.5469 514.359 54.0625 514.359 54.625V55.0938C514.359 55.6016 514.43 56.0703 514.57 56.5C514.719 56.9297 514.926 57.3008 515.191 57.6133C515.465 57.9258 515.793 58.168 516.176 58.3398C516.566 58.5117 517.008 58.5977 517.5 58.5977C518.109 58.5977 518.676 58.4805 519.199 58.2461C519.73 58.0039 520.188 57.6406 520.57 57.1562L522.211 58.9375C521.945 59.3203 521.582 59.6875 521.121 60.0391C520.668 60.3906 520.121 60.6797 519.48 60.9062C518.84 61.125 518.109 61.2344 517.289 61.2344ZM542.051 58.2578V61H532.969V58.2578H542.051ZM534.117 43.9375V61H530.602V43.9375H534.117ZM540.867 50.8867V53.5586H532.969V50.8867H540.867ZM542.039 43.9375V46.6914H532.969V43.9375H542.039ZM546.609 48.3203L548.707 52.1758L550.863 48.3203H554.461L550.875 54.5195L554.625 61H551.016L548.73 56.9219L546.445 61H542.836L546.586 54.5195L543 48.3203H546.609ZM559.477 50.7578V65.875H556.102V48.3203H559.23L559.477 50.7578ZM567.504 54.5195V54.7656C567.504 55.6875 567.395 56.543 567.176 57.332C566.965 58.1211 566.652 58.8086 566.238 59.3945C565.824 59.9727 565.309 60.4258 564.691 60.7539C564.082 61.0742 563.379 61.2344 562.582 61.2344C561.809 61.2344 561.137 61.0781 560.566 60.7656C559.996 60.4531 559.516 60.0156 559.125 59.4531C558.742 58.8828 558.434 58.2227 558.199 57.4727C557.965 56.7227 557.785 55.918 557.66 55.0586V54.4141C557.785 53.4922 557.965 52.6484 558.199 51.8828C558.434 51.1094 558.742 50.4414 559.125 49.8789C559.516 49.3086 559.992 48.8672 560.555 48.5547C561.125 48.2422 561.793 48.0859 562.559 48.0859C563.363 48.0859 564.07 48.2383 564.68 48.543C565.297 48.8477 565.812 49.2852 566.227 49.8555C566.648 50.4258 566.965 51.1055 567.176 51.8945C567.395 52.6836 567.504 53.5586 567.504 54.5195ZM564.117 54.7656V54.5195C564.117 53.9805 564.07 53.4844 563.977 53.0312C563.891 52.5703 563.75 52.168 563.555 51.8242C563.367 51.4805 563.117 51.2148 562.805 51.0273C562.5 50.832 562.129 50.7344 561.691 50.7344C561.23 50.7344 560.836 50.8086 560.508 50.957C560.188 51.1055 559.926 51.3203 559.723 51.6016C559.52 51.8828 559.367 52.2188 559.266 52.6094C559.164 53 559.102 53.4414 559.078 53.9336V55.5625C559.117 56.1406 559.227 56.6602 559.406 57.1211C559.586 57.5742 559.863 57.9336 560.238 58.1992C560.613 58.4648 561.105 58.5977 561.715 58.5977C562.16 58.5977 562.535 58.5 562.84 58.3047C563.145 58.1016 563.391 57.8242 563.578 57.4727C563.773 57.1211 563.91 56.7148 563.988 56.2539C564.074 55.793 564.117 55.2969 564.117 54.7656ZM572.977 51.0859V61H569.602V48.3203H572.777L572.977 51.0859ZM576.797 48.2383L576.738 51.3672C576.574 51.3438 576.375 51.3242 576.141 51.3086C575.914 51.2852 575.707 51.2734 575.52 51.2734C575.043 51.2734 574.629 51.3359 574.277 51.4609C573.934 51.5781 573.645 51.7539 573.41 51.9883C573.184 52.2227 573.012 52.5078 572.895 52.8438C572.785 53.1797 572.723 53.5625 572.707 53.9922L572.027 53.7812C572.027 52.9609 572.109 52.207 572.273 51.5195C572.438 50.8242 572.676 50.2188 572.988 49.7031C573.309 49.1875 573.699 48.7891 574.16 48.5078C574.621 48.2266 575.148 48.0859 575.742 48.0859C575.93 48.0859 576.121 48.1016 576.316 48.1328C576.512 48.1562 576.672 48.1914 576.797 48.2383ZM583.992 61.2344C583.008 61.2344 582.125 61.0781 581.344 60.7656C580.562 60.4453 579.898 60.0039 579.352 59.4414C578.812 58.8789 578.398 58.2266 578.109 57.4844C577.82 56.7344 577.676 55.9375 577.676 55.0938V54.625C577.676 53.6641 577.812 52.7852 578.086 51.9883C578.359 51.1914 578.75 50.5 579.258 49.9141C579.773 49.3281 580.398 48.8789 581.133 48.5664C581.867 48.2461 582.695 48.0859 583.617 48.0859C584.516 48.0859 585.312 48.2344 586.008 48.5312C586.703 48.8281 587.285 49.25 587.754 49.7969C588.23 50.3438 588.59 51 588.832 51.7656C589.074 52.5234 589.195 53.3672 589.195 54.2969V55.7031H579.117V53.4531H585.879V53.1953C585.879 52.7266 585.793 52.3086 585.621 51.9414C585.457 51.5664 585.207 51.2695 584.871 51.0508C584.535 50.832 584.105 50.7227 583.582 50.7227C583.137 50.7227 582.754 50.8203 582.434 51.0156C582.113 51.2109 581.852 51.4844 581.648 51.8359C581.453 52.1875 581.305 52.6016 581.203 53.0781C581.109 53.5469 581.062 54.0625 581.062 54.625V55.0938C581.062 55.6016 581.133 56.0703 581.273 56.5C581.422 56.9297 581.629 57.3008 581.895 57.6133C582.168 57.9258 582.496 58.168 582.879 58.3398C583.27 58.5117 583.711 58.5977 584.203 58.5977C584.812 58.5977 585.379 58.4805 585.902 58.2461C586.434 58.0039 586.891 57.6406 587.273 57.1562L588.914 58.9375C588.648 59.3203 588.285 59.6875 587.824 60.0391C587.371 60.3906 586.824 60.6797 586.184 60.9062C585.543 61.125 584.812 61.2344 583.992 61.2344ZM597.973 57.4961C597.973 57.2539 597.902 57.0352 597.762 56.8398C597.621 56.6445 597.359 56.4648 596.977 56.3008C596.602 56.1289 596.059 55.9727 595.348 55.832C594.707 55.6914 594.109 55.5156 593.555 55.3047C593.008 55.0859 592.531 54.8242 592.125 54.5195C591.727 54.2148 591.414 53.8555 591.188 53.4414C590.961 53.0195 590.848 52.5391 590.848 52C590.848 51.4688 590.961 50.9688 591.188 50.5C591.422 50.0312 591.754 49.6172 592.184 49.2578C592.621 48.8906 593.152 48.6055 593.777 48.4023C594.41 48.1914 595.121 48.0859 595.91 48.0859C597.012 48.0859 597.957 48.2617 598.746 48.6133C599.543 48.9648 600.152 49.4492 600.574 50.0664C601.004 50.6758 601.219 51.3711 601.219 52.1523H597.844C597.844 51.8242 597.773 51.5312 597.633 51.2734C597.5 51.0078 597.289 50.8008 597 50.6523C596.719 50.4961 596.352 50.418 595.898 50.418C595.523 50.418 595.199 50.4844 594.926 50.6172C594.652 50.7422 594.441 50.9141 594.293 51.1328C594.152 51.3438 594.082 51.5781 594.082 51.8359C594.082 52.0312 594.121 52.207 594.199 52.3633C594.285 52.5117 594.422 52.6484 594.609 52.7734C594.797 52.8984 595.039 53.0156 595.336 53.125C595.641 53.2266 596.016 53.3203 596.461 53.4062C597.375 53.5938 598.191 53.8398 598.91 54.1445C599.629 54.4414 600.199 54.8477 600.621 55.3633C601.043 55.8711 601.254 56.5391 601.254 57.3672C601.254 57.9297 601.129 58.4453 600.879 58.9141C600.629 59.3828 600.27 59.793 599.801 60.1445C599.332 60.4883 598.77 60.7578 598.113 60.9531C597.465 61.1406 596.734 61.2344 595.922 61.2344C594.742 61.2344 593.742 61.0234 592.922 60.6016C592.109 60.1797 591.492 59.6445 591.07 58.9961C590.656 58.3398 590.449 57.668 590.449 56.9805H593.648C593.664 57.4414 593.781 57.8125 594 58.0938C594.227 58.375 594.512 58.5781 594.855 58.7031C595.207 58.8281 595.586 58.8906 595.992 58.8906C596.43 58.8906 596.793 58.832 597.082 58.7148C597.371 58.5898 597.59 58.4258 597.738 58.2227C597.895 58.0117 597.973 57.7695 597.973 57.4961ZM610.301 57.4961C610.301 57.2539 610.23 57.0352 610.09 56.8398C609.949 56.6445 609.688 56.4648 609.305 56.3008C608.93 56.1289 608.387 55.9727 607.676 55.832C607.035 55.6914 606.438 55.5156 605.883 55.3047C605.336 55.0859 604.859 54.8242 604.453 54.5195C604.055 54.2148 603.742 53.8555 603.516 53.4414C603.289 53.0195 603.176 52.5391 603.176 52C603.176 51.4688 603.289 50.9688 603.516 50.5C603.75 50.0312 604.082 49.6172 604.512 49.2578C604.949 48.8906 605.48 48.6055 606.105 48.4023C606.738 48.1914 607.449 48.0859 608.238 48.0859C609.34 48.0859 610.285 48.2617 611.074 48.6133C611.871 48.9648 612.48 49.4492 612.902 50.0664C613.332 50.6758 613.547 51.3711 613.547 52.1523H610.172C610.172 51.8242 610.102 51.5312 609.961 51.2734C609.828 51.0078 609.617 50.8008 609.328 50.6523C609.047 50.4961 608.68 50.418 608.227 50.418C607.852 50.418 607.527 50.4844 607.254 50.6172C606.98 50.7422 606.77 50.9141 606.621 51.1328C606.48 51.3438 606.41 51.5781 606.41 51.8359C606.41 52.0312 606.449 52.207 606.527 52.3633C606.613 52.5117 606.75 52.6484 606.938 52.7734C607.125 52.8984 607.367 53.0156 607.664 53.125C607.969 53.2266 608.344 53.3203 608.789 53.4062C609.703 53.5938 610.52 53.8398 611.238 54.1445C611.957 54.4414 612.527 54.8477 612.949 55.3633C613.371 55.8711 613.582 56.5391 613.582 57.3672C613.582 57.9297 613.457 58.4453 613.207 58.9141C612.957 59.3828 612.598 59.793 612.129 60.1445C611.66 60.4883 611.098 60.7578 610.441 60.9531C609.793 61.1406 609.062 61.2344 608.25 61.2344C607.07 61.2344 606.07 61.0234 605.25 60.6016C604.438 60.1797 603.82 59.6445 603.398 58.9961C602.984 58.3398 602.777 57.668 602.777 56.9805H605.977C605.992 57.4414 606.109 57.8125 606.328 58.0938C606.555 58.375 606.84 58.5781 607.184 58.7031C607.535 58.8281 607.914 58.8906 608.32 58.8906C608.758 58.8906 609.121 58.832 609.41 58.7148C609.699 58.5898 609.918 58.4258 610.066 58.2227C610.223 58.0117 610.301 57.7695 610.301 57.4961Z" fill="#888888"/>
<path d="M109.219 107.422H100.734V101.07H109.219C110.375 101.07 111.312 100.875 112.031 100.484C112.75 100.094 113.273 99.5547 113.602 98.8672C113.945 98.1641 114.117 97.375 114.117 96.5C114.117 95.5625 113.945 94.6953 113.602 93.8984C113.273 93.1016 112.75 92.4609 112.031 91.9766C111.312 91.4766 110.375 91.2266 109.219 91.2266H103.828V119H95.6016V84.875H109.219C111.953 84.875 114.305 85.375 116.273 86.375C118.258 87.375 119.781 88.75 120.844 90.5C121.906 92.2344 122.438 94.2188 122.438 96.4531C122.438 98.6562 121.906 100.578 120.844 102.219C119.781 103.859 118.258 105.141 116.273 106.062C114.305 106.969 111.953 107.422 109.219 107.422ZM134.461 99.9219V119H126.562V93.6406H133.945L134.461 99.9219ZM141.961 93.4531L141.82 100.789C141.508 100.758 141.086 100.719 140.555 100.672C140.023 100.625 139.578 100.602 139.219 100.602C138.297 100.602 137.5 100.711 136.828 100.93C136.172 101.133 135.625 101.445 135.188 101.867C134.766 102.273 134.453 102.789 134.25 103.414C134.062 104.039 133.977 104.766 133.992 105.594L132.562 104.656C132.562 102.953 132.727 101.406 133.055 100.016C133.398 98.6094 133.883 97.3984 134.508 96.3828C135.133 95.3516 135.891 94.5625 136.781 94.0156C137.672 93.4531 138.672 93.1719 139.781 93.1719C140.172 93.1719 140.555 93.1953 140.93 93.2422C141.32 93.2891 141.664 93.3594 141.961 93.4531ZM142.852 106.578V106.086C142.852 104.227 143.117 102.516 143.648 100.953C144.18 99.375 144.961 98.0078 145.992 96.8516C147.023 95.6953 148.297 94.7969 149.812 94.1562C151.328 93.5 153.078 93.1719 155.062 93.1719C157.062 93.1719 158.82 93.5 160.336 94.1562C161.867 94.7969 163.148 95.6953 164.18 96.8516C165.211 98.0078 165.992 99.375 166.523 100.953C167.055 102.516 167.32 104.227 167.32 106.086V106.578C167.32 108.422 167.055 110.133 166.523 111.711C165.992 113.273 165.211 114.641 164.18 115.812C163.148 116.969 161.875 117.867 160.359 118.508C158.844 119.148 157.094 119.469 155.109 119.469C153.125 119.469 151.367 119.148 149.836 118.508C148.305 117.867 147.023 116.969 145.992 115.812C144.961 114.641 144.18 113.273 143.648 111.711C143.117 110.133 142.852 108.422 142.852 106.578ZM150.75 106.086V106.578C150.75 107.531 150.82 108.422 150.961 109.25C151.102 110.078 151.336 110.805 151.664 111.43C151.992 112.039 152.438 112.516 153 112.859C153.562 113.203 154.266 113.375 155.109 113.375C155.938 113.375 156.625 113.203 157.172 112.859C157.734 112.516 158.18 112.039 158.508 111.43C158.836 110.805 159.07 110.078 159.211 109.25C159.352 108.422 159.422 107.531 159.422 106.578V106.086C159.422 105.164 159.352 104.297 159.211 103.484C159.07 102.656 158.836 101.93 158.508 101.305C158.18 100.664 157.734 100.164 157.172 99.8047C156.609 99.4453 155.906 99.2656 155.062 99.2656C154.234 99.2656 153.539 99.4453 152.977 99.8047C152.43 100.164 151.992 100.664 151.664 101.305C151.336 101.93 151.102 102.656 150.961 103.484C150.82 104.297 150.75 105.164 150.75 106.086ZM171.422 93.6406H179.344V119.82C179.344 121.852 178.953 123.562 178.172 124.953C177.391 126.359 176.273 127.422 174.82 128.141C173.367 128.875 171.633 129.242 169.617 129.242C168.945 129.242 168.328 129.211 167.766 129.148C167.188 129.102 166.555 129 165.867 128.844V122.867C166.273 122.93 166.648 122.977 166.992 123.008C167.336 123.055 167.711 123.078 168.117 123.078C168.836 123.078 169.438 122.961 169.922 122.727C170.406 122.492 170.773 122.133 171.023 121.648C171.289 121.164 171.422 120.555 171.422 119.82V93.6406ZM170.836 87.1016C170.836 85.9766 171.242 85.0547 172.055 84.3359C172.867 83.6172 173.922 83.2578 175.219 83.2578C176.516 83.2578 177.57 83.6172 178.383 84.3359C179.195 85.0547 179.602 85.9766 179.602 87.1016C179.602 88.2266 179.195 89.1484 178.383 89.8672C177.57 90.5859 176.516 90.9453 175.219 90.9453C173.922 90.9453 172.867 90.5859 172.055 89.8672C171.242 89.1484 170.836 88.2266 170.836 87.1016ZM196.102 119.469C194.039 119.469 192.195 119.148 190.57 118.508C188.945 117.852 187.57 116.953 186.445 115.812C185.336 114.672 184.484 113.359 183.891 111.875C183.312 110.391 183.023 108.82 183.023 107.164V106.273C183.023 104.414 183.281 102.695 183.797 101.117C184.312 99.5234 185.078 98.1328 186.094 96.9453C187.109 95.7578 188.383 94.8359 189.914 94.1797C191.445 93.5078 193.227 93.1719 195.258 93.1719C197.055 93.1719 198.664 93.4609 200.086 94.0391C201.508 94.6172 202.711 95.4453 203.695 96.5234C204.695 97.6016 205.453 98.9062 205.969 100.438C206.5 101.969 206.766 103.688 206.766 105.594V108.805H186.047V103.859H199.055V103.25C199.07 102.406 198.922 101.688 198.609 101.094C198.312 100.5 197.875 100.047 197.297 99.7344C196.719 99.4219 196.016 99.2656 195.188 99.2656C194.328 99.2656 193.617 99.4531 193.055 99.8281C192.508 100.203 192.078 100.719 191.766 101.375C191.469 102.016 191.258 102.758 191.133 103.602C191.008 104.445 190.945 105.336 190.945 106.273V107.164C190.945 108.102 191.07 108.953 191.32 109.719C191.586 110.484 191.961 111.141 192.445 111.688C192.945 112.219 193.539 112.633 194.227 112.93C194.93 113.227 195.727 113.375 196.617 113.375C197.695 113.375 198.758 113.172 199.805 112.766C200.852 112.359 201.75 111.688 202.5 110.75L206.086 115.016C205.57 115.75 204.836 116.461 203.883 117.148C202.945 117.836 201.82 118.398 200.508 118.836C199.195 119.258 197.727 119.469 196.102 119.469ZM220.688 113.375C221.422 113.375 222.047 113.242 222.562 112.977C223.094 112.695 223.492 112.305 223.758 111.805C224.039 111.289 224.172 110.672 224.156 109.953H231.586C231.602 111.859 231.133 113.531 230.18 114.969C229.242 116.391 227.961 117.5 226.336 118.297C224.727 119.078 222.906 119.469 220.875 119.469C218.891 119.469 217.156 119.148 215.672 118.508C214.188 117.852 212.945 116.945 211.945 115.789C210.961 114.617 210.219 113.25 209.719 111.688C209.234 110.125 208.992 108.43 208.992 106.602V106.062C208.992 104.234 209.234 102.539 209.719 100.977C210.219 99.3984 210.961 98.0312 211.945 96.875C212.945 95.7031 214.18 94.7969 215.648 94.1562C217.133 93.5 218.859 93.1719 220.828 93.1719C222.938 93.1719 224.797 93.5703 226.406 94.3672C228.031 95.1641 229.305 96.3203 230.227 97.8359C231.148 99.3516 231.602 101.188 231.586 103.344H224.156C224.172 102.578 224.055 101.891 223.805 101.281C223.555 100.672 223.164 100.188 222.633 99.8281C222.117 99.4531 221.453 99.2656 220.641 99.2656C219.828 99.2656 219.172 99.4453 218.672 99.8047C218.172 100.164 217.789 100.664 217.523 101.305C217.273 101.93 217.102 102.648 217.008 103.461C216.93 104.273 216.891 105.141 216.891 106.062V106.602C216.891 107.539 216.93 108.422 217.008 109.25C217.102 110.062 217.281 110.781 217.547 111.406C217.812 112.016 218.195 112.5 218.695 112.859C219.195 113.203 219.859 113.375 220.688 113.375ZM248.32 93.6406V99.125H233.039V93.6406H248.32ZM236.25 87.3359H244.148V110.727C244.148 111.398 244.227 111.922 244.383 112.297C244.539 112.656 244.805 112.914 245.18 113.07C245.57 113.211 246.086 113.281 246.727 113.281C247.18 113.281 247.555 113.273 247.852 113.258C248.148 113.227 248.43 113.188 248.695 113.141V118.789C248.023 119.008 247.32 119.172 246.586 119.281C245.852 119.406 245.07 119.469 244.242 119.469C242.555 119.469 241.109 119.203 239.906 118.672C238.719 118.141 237.812 117.305 237.188 116.164C236.562 115.023 236.25 113.539 236.25 111.711V87.3359ZM277.406 107.422H268.922V101.07H277.406C278.562 101.07 279.5 100.875 280.219 100.484C280.938 100.094 281.461 99.5547 281.789 98.8672C282.133 98.1641 282.305 97.375 282.305 96.5C282.305 95.5625 282.133 94.6953 281.789 93.8984C281.461 93.1016 280.938 92.4609 280.219 91.9766C279.5 91.4766 278.562 91.2266 277.406 91.2266H272.016V119H263.789V84.875H277.406C280.141 84.875 282.492 85.375 284.461 86.375C286.445 87.375 287.969 88.75 289.031 90.5C290.094 92.2344 290.625 94.2188 290.625 96.4531C290.625 98.6562 290.094 100.578 289.031 102.219C287.969 103.859 286.445 105.141 284.461 106.062C282.492 106.969 280.141 107.422 277.406 107.422ZM302.414 83V119H294.516V83H302.414ZM301.477 105.453L299.625 105.5C299.625 103.719 299.844 102.078 300.281 100.578C300.719 99.0781 301.344 97.7734 302.156 96.6641C302.969 95.5547 303.945 94.6953 305.086 94.0859C306.227 93.4766 307.492 93.1719 308.883 93.1719C310.133 93.1719 311.273 93.3516 312.305 93.7109C313.352 94.0703 314.25 94.6484 315 95.4453C315.766 96.2422 316.352 97.2812 316.758 98.5625C317.18 99.8438 317.391 101.406 317.391 103.25V119H309.445V103.203C309.445 102.172 309.297 101.375 309 100.812C308.719 100.234 308.312 99.8359 307.781 99.6172C307.25 99.3828 306.602 99.2656 305.836 99.2656C304.914 99.2656 304.164 99.4219 303.586 99.7344C303.008 100.047 302.562 100.484 302.25 101.047C301.953 101.594 301.75 102.242 301.641 102.992C301.531 103.742 301.477 104.562 301.477 105.453ZM330.117 93.6406V119H322.195V93.6406H330.117ZM321.727 87.1016C321.727 85.9766 322.133 85.0547 322.945 84.3359C323.758 83.6172 324.812 83.2578 326.109 83.2578C327.406 83.2578 328.461 83.6172 329.273 84.3359C330.086 85.0547 330.492 85.9766 330.492 87.1016C330.492 88.2266 330.086 89.1484 329.273 89.8672C328.461 90.5859 327.406 90.9453 326.109 90.9453C324.812 90.9453 323.758 90.5859 322.945 89.8672C322.133 89.1484 321.727 88.2266 321.727 87.1016ZM343.336 83V119H335.414V83H343.336ZM347.227 106.578V106.086C347.227 104.227 347.492 102.516 348.023 100.953C348.555 99.375 349.336 98.0078 350.367 96.8516C351.398 95.6953 352.672 94.7969 354.188 94.1562C355.703 93.5 357.453 93.1719 359.438 93.1719C361.438 93.1719 363.195 93.5 364.711 94.1562C366.242 94.7969 367.523 95.6953 368.555 96.8516C369.586 98.0078 370.367 99.375 370.898 100.953C371.43 102.516 371.695 104.227 371.695 106.086V106.578C371.695 108.422 371.43 110.133 370.898 111.711C370.367 113.273 369.586 114.641 368.555 115.812C367.523 116.969 366.25 117.867 364.734 118.508C363.219 119.148 361.469 119.469 359.484 119.469C357.5 119.469 355.742 119.148 354.211 118.508C352.68 117.867 351.398 116.969 350.367 115.812C349.336 114.641 348.555 113.273 348.023 111.711C347.492 110.133 347.227 108.422 347.227 106.578ZM355.125 106.086V106.578C355.125 107.531 355.195 108.422 355.336 109.25C355.477 110.078 355.711 110.805 356.039 111.43C356.367 112.039 356.812 112.516 357.375 112.859C357.938 113.203 358.641 113.375 359.484 113.375C360.312 113.375 361 113.203 361.547 112.859C362.109 112.516 362.555 112.039 362.883 111.43C363.211 110.805 363.445 110.078 363.586 109.25C363.727 108.422 363.797 107.531 363.797 106.578V106.086C363.797 105.164 363.727 104.297 363.586 103.484C363.445 102.656 363.211 101.93 362.883 101.305C362.555 100.664 362.109 100.164 361.547 99.8047C360.984 99.4453 360.281 99.2656 359.438 99.2656C358.609 99.2656 357.914 99.4453 357.352 99.8047C356.805 100.164 356.367 100.664 356.039 101.305C355.711 101.93 355.477 102.656 355.336 103.484C355.195 104.297 355.125 105.164 355.125 106.086ZM388.5 111.875C388.5 111.438 388.352 111.062 388.055 110.75C387.773 110.422 387.273 110.125 386.555 109.859C385.836 109.578 384.828 109.297 383.531 109.016C382.297 108.75 381.133 108.398 380.039 107.961C378.961 107.523 378.016 106.992 377.203 106.367C376.391 105.742 375.75 105 375.281 104.141C374.828 103.281 374.602 102.297 374.602 101.188C374.602 100.109 374.828 99.0938 375.281 98.1406C375.75 97.1719 376.43 96.3203 377.32 95.5859C378.227 94.8359 379.328 94.25 380.625 93.8281C381.922 93.3906 383.398 93.1719 385.055 93.1719C387.336 93.1719 389.305 93.5234 390.961 94.2266C392.617 94.9141 393.891 95.8828 394.781 97.1328C395.688 98.3672 396.141 99.7969 396.141 101.422H388.242C388.242 100.781 388.133 100.234 387.914 99.7812C387.711 99.3281 387.375 98.9844 386.906 98.75C386.438 98.5 385.812 98.375 385.031 98.375C384.484 98.375 383.984 98.4766 383.531 98.6797C383.094 98.8828 382.742 99.1641 382.477 99.5234C382.211 99.8828 382.078 100.305 382.078 100.789C382.078 101.133 382.156 101.445 382.312 101.727C382.484 101.992 382.742 102.242 383.086 102.477C383.43 102.695 383.867 102.898 384.398 103.086C384.93 103.258 385.57 103.414 386.32 103.555C388.023 103.867 389.617 104.312 391.102 104.891C392.586 105.469 393.789 106.289 394.711 107.352C395.648 108.414 396.117 109.844 396.117 111.641C396.117 112.766 395.859 113.805 395.344 114.758C394.828 115.695 394.086 116.523 393.117 117.242C392.148 117.945 390.984 118.492 389.625 118.883C388.266 119.273 386.734 119.469 385.031 119.469C382.609 119.469 380.562 119.039 378.891 118.18C377.219 117.305 375.953 116.211 375.094 114.898C374.25 113.57 373.828 112.227 373.828 110.867H381.188C381.219 111.648 381.406 112.289 381.75 112.789C382.109 113.289 382.586 113.656 383.18 113.891C383.773 114.125 384.461 114.242 385.242 114.242C385.961 114.242 386.555 114.141 387.023 113.938C387.508 113.734 387.875 113.461 388.125 113.117C388.375 112.758 388.5 112.344 388.5 111.875ZM398.836 106.578V106.086C398.836 104.227 399.102 102.516 399.633 100.953C400.164 99.375 400.945 98.0078 401.977 96.8516C403.008 95.6953 404.281 94.7969 405.797 94.1562C407.312 93.5 409.062 93.1719 411.047 93.1719C413.047 93.1719 414.805 93.5 416.32 94.1562C417.852 94.7969 419.133 95.6953 420.164 96.8516C421.195 98.0078 421.977 99.375 422.508 100.953C423.039 102.516 423.305 104.227 423.305 106.086V106.578C423.305 108.422 423.039 110.133 422.508 111.711C421.977 113.273 421.195 114.641 420.164 115.812C419.133 116.969 417.859 117.867 416.344 118.508C414.828 119.148 413.078 119.469 411.094 119.469C409.109 119.469 407.352 119.148 405.82 118.508C404.289 117.867 403.008 116.969 401.977 115.812C400.945 114.641 400.164 113.273 399.633 111.711C399.102 110.133 398.836 108.422 398.836 106.578ZM406.734 106.086V106.578C406.734 107.531 406.805 108.422 406.945 109.25C407.086 110.078 407.32 110.805 407.648 111.43C407.977 112.039 408.422 112.516 408.984 112.859C409.547 113.203 410.25 113.375 411.094 113.375C411.922 113.375 412.609 113.203 413.156 112.859C413.719 112.516 414.164 112.039 414.492 111.43C414.82 110.805 415.055 110.078 415.195 109.25C415.336 108.422 415.406 107.531 415.406 106.578V106.086C415.406 105.164 415.336 104.297 415.195 103.484C415.055 102.656 414.82 101.93 414.492 101.305C414.164 100.664 413.719 100.164 413.156 99.8047C412.594 99.4453 411.891 99.2656 411.047 99.2656C410.219 99.2656 409.523 99.4453 408.961 99.8047C408.414 100.164 407.977 100.664 407.648 101.305C407.32 101.93 407.086 102.656 406.945 103.484C406.805 104.297 406.734 105.164 406.734 106.086ZM434.789 98.5156V128.75H426.891V93.6406H434.25L434.789 98.5156ZM450.352 106.016V106.508C450.352 108.352 450.141 110.062 449.719 111.641C449.297 113.219 448.672 114.594 447.844 115.766C447.016 116.938 445.984 117.852 444.75 118.508C443.531 119.148 442.117 119.469 440.508 119.469C438.992 119.469 437.688 119.133 436.594 118.461C435.5 117.789 434.586 116.859 433.852 115.672C433.117 114.484 432.523 113.125 432.07 111.594C431.617 110.062 431.258 108.445 430.992 106.742V106.109C431.258 104.281 431.617 102.586 432.07 101.023C432.523 99.4453 433.117 98.0703 433.852 96.8984C434.586 95.7266 435.492 94.8125 436.57 94.1562C437.664 93.5 438.969 93.1719 440.484 93.1719C442.094 93.1719 443.508 93.4766 444.727 94.0859C445.961 94.6953 446.992 95.5703 447.82 96.7109C448.664 97.8359 449.297 99.1875 449.719 100.766C450.141 102.344 450.352 104.094 450.352 106.016ZM442.453 106.508V106.016C442.453 105.031 442.383 104.133 442.242 103.32C442.102 102.492 441.875 101.773 441.562 101.164C441.266 100.555 440.867 100.086 440.367 99.7578C439.867 99.4297 439.25 99.2656 438.516 99.2656C437.672 99.2656 436.961 99.3984 436.383 99.6641C435.82 99.9141 435.367 100.305 435.023 100.836C434.695 101.352 434.461 102 434.32 102.781C434.195 103.547 434.141 104.445 434.156 105.477V107.398C434.125 108.586 434.242 109.633 434.508 110.539C434.773 111.43 435.234 112.125 435.891 112.625C436.547 113.125 437.438 113.375 438.562 113.375C439.312 113.375 439.938 113.203 440.438 112.859C440.938 112.5 441.336 112.008 441.633 111.383C441.93 110.742 442.141 110.008 442.266 109.18C442.391 108.352 442.453 107.461 442.453 106.508ZM461.602 83V119H453.703V83H461.602ZM460.664 105.453L458.812 105.5C458.812 103.719 459.031 102.078 459.469 100.578C459.906 99.0781 460.531 97.7734 461.344 96.6641C462.156 95.5547 463.133 94.6953 464.273 94.0859C465.414 93.4766 466.68 93.1719 468.07 93.1719C469.32 93.1719 470.461 93.3516 471.492 93.7109C472.539 94.0703 473.438 94.6484 474.188 95.4453C474.953 96.2422 475.539 97.2812 475.945 98.5625C476.367 99.8438 476.578 101.406 476.578 103.25V119H468.633V103.203C468.633 102.172 468.484 101.375 468.188 100.812C467.906 100.234 467.5 99.8359 466.969 99.6172C466.438 99.3828 465.789 99.2656 465.023 99.2656C464.102 99.2656 463.352 99.4219 462.773 99.7344C462.195 100.047 461.75 100.484 461.438 101.047C461.141 101.594 460.938 102.242 460.828 102.992C460.719 103.742 460.664 104.562 460.664 105.453ZM488.742 116.023L495.305 93.6406H503.789L493.594 122.773C493.375 123.414 493.086 124.102 492.727 124.836C492.367 125.586 491.875 126.297 491.25 126.969C490.625 127.641 489.82 128.188 488.836 128.609C487.867 129.031 486.664 129.242 485.227 129.242C484.461 129.242 483.898 129.203 483.539 129.125C483.195 129.062 482.664 128.945 481.945 128.773V123.125C482.148 123.125 482.32 123.125 482.461 123.125C482.617 123.125 482.789 123.125 482.977 123.125C483.82 123.125 484.492 123.039 484.992 122.867C485.508 122.695 485.898 122.445 486.164 122.117C486.445 121.789 486.664 121.391 486.82 120.922L488.742 116.023ZM487.078 93.6406L492.07 111.383L492.938 119.75H487.641L478.617 93.6406H487.078Z" fill="black"/>
<path d="M1134 0H1348C1356.28 0 1363 6.71573 1363 15V148C1363 156.284 1356.28 163 1348 163H1134V0Z" fill="#003585"/>
<path d="M1234.26 103.786H1262.74V109.357H1234.26V103.786ZM1239.96 114.929H1257.04V120.5H1239.96V114.929ZM1248.5 42.5C1240.95 42.5 1233.71 45.4349 1228.37 50.6592C1223.03 55.8834 1220.03 62.969 1220.03 70.3571C1219.84 74.4057 1220.63 78.4412 1222.34 82.1315C1224.05 85.8219 1226.64 89.0616 1229.88 91.5843C1232.73 94.175 1234.26 95.6514 1234.26 98.2143H1239.96C1239.96 93.0886 1236.8 90.2193 1233.72 87.4614C1231.06 85.4676 1228.94 82.8658 1227.55 79.8838C1226.15 76.9019 1225.53 73.6308 1225.72 70.3571C1225.72 64.4466 1228.12 58.7781 1232.39 54.5988C1236.67 50.4194 1242.46 48.0714 1248.5 48.0714C1254.54 48.0714 1260.33 50.4194 1264.61 54.5988C1268.88 58.7781 1271.28 64.4466 1271.28 70.3571C1271.47 73.6333 1270.84 76.9059 1269.44 79.888C1268.04 82.8701 1265.92 85.4706 1263.25 87.4614C1260.2 90.2471 1257.04 93.0329 1257.04 98.2143H1262.74C1262.74 95.6514 1264.25 94.175 1267.12 91.5564C1270.36 89.0381 1272.94 85.8031 1274.66 82.1176C1276.37 78.4321 1277.16 74.4014 1276.97 70.3571C1276.97 66.6989 1276.24 63.0765 1274.81 59.6967C1273.37 56.3169 1271.28 53.2459 1268.63 50.6592C1265.99 48.0724 1262.85 46.0205 1259.4 44.6205C1255.94 43.2205 1252.24 42.5 1248.5 42.5Z" fill="white"/>
</svg>
